<svg width="52" height="52" xmlns="http://www.w3.org/2000/svg">

 <g>
  <title>background</title>
  <rect fill="none" id="canvas_background" height="402" width="582" y="-1" x="-1"/>
 </g>
 <g>
  <title>Layer 1</title>
  <path fill="#00ff7f" id="svg_3" d="m7.808853,18.99951c0.55273,0 1,-0.44726 1,-1l0,-5.8164c0,-2.8584 2.50976,-5.1836 5.5957,-5.1836l5.4043,0c0.55273,0 1,-0.44726 1,-1s-0.44727,-1 -1,-1l-5.4043,0c-4.18848,0 -7.5957,3.22266 -7.5957,7.1836l0,5.8164c0,0.55274 0.44726,1 1,1z"/>
  <path fill="#00ff7f" id="svg_5" d="m19.878061,45.00049l-5.4043,0c-3.08594,0 -5.5957,-2.3252 -5.5957,-5.1836l0,-5.8164c0,-0.55274 -0.44727,-1 -1,-1s-1,0.44726 -1,1l0,5.8164c0,3.96094 3.40722,7.1836 7.5957,7.1836l5.4043,0c0.55273,0 1,-0.44727 1,-1s-0.44727,-1 -1,-1z"/>
  <path fill="#00ff7f" id="svg_7" d="m37.318613,4.99951l-5.4043,0c-0.55273,0 -1,0.44727 -1,1s0.44727,1 1,1l5.4043,0c3.08594,0 5.5957,2.3252 5.5957,5.1836l0,5.8164c0,0.55274 0.44727,1 1,1s1,-0.44726 1,-1l0,-5.8164c0,-3.96094 -3.40722,-7.1836 -7.5957,-7.1836z"/>
  <path fill="#00ff7f" id="svg_9" d="m43.914313,33.00049c-0.55273,0 -1,0.44726 -1,1l0,5.8164c0,2.8584 -2.50976,5.1836 -5.5957,5.1836l-5.4043,0c-0.55273,0 -1,0.44726 -1,1s0.44727,1 1,1l5.4043,0c4.18848,0 7.5957,-3.22266 7.5957,-7.1836l0,-5.8164c0,-0.55274 -0.44726,-1 -1,-1z"/>
  <path id="svg_11" fill="#00ff7f" d="m23.45313,23.20068c-0.44239,0.33106 -0.53223,0.95801 -0.2002,1.39942c0.02734,0.03808 2.7998,3.78711 2.7998,8.40039c0,0.55273 0.44727,1 1,1s1,-0.44727 1,-1c0,-5.27246 -3.06933,-9.42578 -3.20019,-9.59961c-0.33106,-0.44336 -0.95801,-0.53223 -1.39941,-0.2002z"/>
  <path id="svg_13" fill="#00ff7f" d="m21.60547,18.10596c-2.02734,1.01367 -2.93067,3.06836 -2.54297,5.78613c0.27051,1.88867 1.0625,3.48828 1.0957,3.55566c0.17481,0.35059 0.52832,0.55274 0.89453,0.55274c0.1504,0 0.30274,-0.03418 0.44532,-0.10547c0.49414,-0.24609 0.69531,-0.84668 0.45019,-1.34082c-0.02539,-0.05078 -2.5039,-5.13184 0.53321,-6.65039c0.13085,-0.05762 3.23144,-1.34668 6.67675,5.54394c0.24805,0.49512 0.84766,0.69239 1.3418,0.44727c0.49414,-0.24707 0.69434,-0.84766 0.44727,-1.3418c-4.39649,-8.79394 -9.14258,-6.5459 -9.3418,-6.44726z"/>
  <path id="svg_15" fill="#00ff7f" d="m27.69434,15.93408c0.29589,0.11621 7.22461,3.00488 5.36718,16.93457c-0.07324,0.54688 0.31153,1.04981 0.85938,1.12305c0.04492,0.00586 0.08887,0.00879 0.13281,0.00879c0.49414,0 0.92285,-0.36524 0.99024,-0.86817c2.08105,-15.60937 -6.28321,-18.93457 -6.63965,-19.06836c-0.51856,-0.1914 -1.08496,0.06641 -1.28125,0.58008c-0.19727,0.5127 0.06054,1.08887 0.57129,1.29004z"/>
  <path id="svg_17" fill="#00ff7f" d="m16.00195,24.36865c-0.54687,0.07617 -0.92773,0.58106 -0.85156,1.12891c0.64746,4.63867 2.92578,7.62988 3.02246,7.75488c0.19629,0.25488 0.49219,0.3877 0.79004,0.3877c0.21387,0 0.42774,-0.06739 0.61035,-0.20703c0.43653,-0.33692 0.51856,-0.96387 0.1836,-1.40137c-0.02051,-0.02735 -2.05567,-2.72168 -2.62598,-6.81153c-0.07617,-0.54687 -0.58203,-0.93457 -1.12891,-0.85156z"/>
  <path id="svg_19" fill="#00ff7f" d="m15.06543,19.84229c-0.08691,0.54589 0.28418,1.05859 0.8291,1.1455c0.05371,0.00879 0.10645,0.0127 0.15918,0.0127c0.48242,0 0.9082,-0.35059 0.98633,-0.8418c0.03418,-0.21094 0.89551,-5.1582 7.01269,-5.1582c0.55274,0 1,-0.44727 1,-1s-0.44726,-1 -1,-1c-7.80273,0 -8.97656,6.77344 -8.9873,6.8418z"/>
  <path fill="#00ff7f" id="svg_21" d="m12.914313,39.00049c-0.55273,0 -1,0.44726 -1,1s0.44727,1 1,1l0.89454,0c0.55273,0 1,-0.44727 1,-1s-0.44727,-1 -1,-1l-0.89454,0z"/>
  <path fill="#00ff7f" id="svg_23" d="m25.361583,39.00049l-0.89453,0c-0.55274,0 -1,0.44726 -1,1s0.44726,1 1,1l0.89453,0c0.55273,0 1,-0.44727 1,-1s-0.44727,-1 -1,-1z"/>
  <path fill="#00ff7f" id="svg_25" d="m36.019783,41.00049l0.89453,0c0.55274,0 1,-0.44727 1,-1s-0.44726,-1 -1,-1l-0.89453,0c-0.55273,0 -1,0.44726 -1,1s0.44727,1 1,1z"/>
 </g>
</svg>