<?xml version="1.0" encoding="UTF-8"?>
<svg xmlns="http://www.w3.org/2000/svg" xmlns:xlink="http://www.w3.org/1999/xlink" viewBox="0 0 48 48" version="1.1" width="16px" height="16px">
<g id="surface1">
<path style=" fill:#64DD17;" d="M 6 10 C 6 7.789063 7.789063 6 10 6 L 38 6 C 40.210938 6 42 7.789063 42 10 L 42 38 C 42 40.210938 40.210938 42 38 42 L 10 42 C 7.789063 42 6 40.210938 6 38 Z "/>
<path style=" fill:#0C1902;" d="M 17.058594 19.175781 L 16.015625 19.175781 L 16.015625 28.617188 L 16.871094 28.617188 C 17.828125 28.617188 18.503906 28.363281 18.894531 27.859375 C 19.285156 27.355469 19.488281 26.484375 19.507813 25.246094 L 19.507813 22.777344 C 19.507813 21.449219 19.324219 20.523438 18.953125 20 C 18.582031 19.476563 17.949219 19.199219 17.058594 19.175781 Z "/>
<path style=" fill:#0C1902;" d="M 9 9 L 9 39 L 39 39 L 39 9 Z M 22.382813 25.003906 C 22.382813 26.871094 21.886719 28.339844 20.902344 29.402344 C 19.914063 30.46875 18.554688 31 16.824219 31 L 13.140625 31 L 13.140625 16.78125 L 16.902344 16.78125 C 18.5625 16.78125 19.886719 17.308594 20.871094 18.363281 C 21.859375 19.417969 22.359375 20.863281 22.382813 22.699219 Z M 33.40625 31 L 31.109375 31 L 29.617188 24.886719 L 28.121094 31 L 25.816406 31 L 23.628906 20.433594 L 26.285156 20.433594 L 27.222656 26.371094 L 28.628906 20.433594 L 30.59375 20.433594 L 32 26.359375 L 32.945313 20.433594 L 35.59375 20.433594 Z "/>
</g>
</svg>
