<?xml version="1.0" encoding="UTF-8"?>
<svg xmlns="http://www.w3.org/2000/svg" xmlns:xlink="http://www.w3.org/1999/xlink" viewBox="0 0 64 64" version="1.1" width="16px" height="16px">
<g id="surface1">
<path style=" fill:#85CBF8;" d="M 51 43.769531 L 51 49.589844 C 50.996094 50.300781 50.613281 50.953125 50 51.308594 L 33 61.390625 C 32.382813 61.746094 31.617188 61.746094 31 61.390625 L 14 51.308594 C 13.386719 50.953125 13.003906 50.300781 13 49.589844 L 13 43 L 29 37.390625 L 32.078125 36.308594 L 35.078125 37.46875 Z "/>
<path style=" fill:#9FDDFF;" d="M 13.71875 24.890625 L 27.019531 9.058594 L 50.410156 24.890625 L 31.089844 36.96875 Z "/>
<path style=" fill:#7BBEEB;" d="M 51 44.769531 L 51 46.941406 L 45.421875 50.609375 C 45.050781 50.851563 44.566406 50.824219 44.230469 50.539063 L 32.710938 40.851563 C 32.335938 40.535156 31.792969 40.535156 31.421875 40.851563 L 19.898438 50.539063 C 19.5625 50.824219 19.078125 50.851563 18.710938 50.609375 L 13 46.851563 L 13 44 L 29 36.390625 L 35.160156 36.390625 Z "/>
<path style=" fill:#85CBF8;" d="M 61.859375 14 L 45.421875 3.160156 C 45.050781 2.917969 44.566406 2.945313 44.230469 3.230469 L 32.070313 13.46875 L 50.421875 24.890625 L 61.941406 15.589844 C 62.179688 15.386719 62.308594 15.085938 62.292969 14.773438 C 62.277344 14.464844 62.117188 14.175781 61.859375 14 Z "/>
<path style=" fill:#85CBF8;" d="M 32.070313 13.46875 L 19.898438 3.230469 C 19.5625 2.945313 19.078125 2.917969 18.710938 3.160156 L 2.28125 14 C 2.015625 14.175781 1.847656 14.46875 1.832031 14.785156 C 1.816406 15.101563 1.953125 15.410156 2.199219 15.609375 L 13.71875 24.910156 L 24.078125 18.46875 "/>
<path style=" fill:#85CBF8;" d="M 32.070313 36.308594 L 19.898438 46.539063 C 19.5625 46.824219 19.078125 46.851563 18.710938 46.609375 L 2.28125 35.800781 C 2.015625 35.625 1.847656 35.332031 1.832031 35.015625 C 1.816406 34.699219 1.953125 34.390625 2.199219 34.191406 L 13.71875 24.890625 L 32.070313 36.308594 L 50.421875 24.890625 L 61.941406 34.191406 C 62.1875 34.390625 62.324219 34.699219 62.308594 35.015625 C 62.292969 35.332031 62.125 35.625 61.859375 35.800781 L 45.421875 46.609375 C 45.050781 46.851563 44.566406 46.824219 44.230469 46.539063 Z "/>
<path style=" fill:#8D6C9F;" d="M 27.351563 17.398438 C 27.539063 17.402344 27.722656 17.347656 27.878906 17.25 L 29.230469 16.410156 C 29.699219 16.117188 29.84375 15.5 29.550781 15.03125 C 29.257813 14.5625 28.640625 14.417969 28.171875 14.710938 L 26.820313 15.550781 C 26.441406 15.785156 26.261719 16.246094 26.386719 16.675781 C 26.507813 17.105469 26.902344 17.402344 27.351563 17.398438 Z "/>
<path style=" fill:#8D6C9F;" d="M 52 24.890625 L 62.550781 16.371094 C 63.046875 15.96875 63.324219 15.351563 63.292969 14.714844 C 63.261719 14.074219 62.925781 13.492188 62.390625 13.140625 L 46 2.328125 C 45.261719 1.84375 44.289063 1.898438 43.609375 2.46875 L 32.070313 12.160156 L 20.550781 2.46875 C 19.871094 1.898438 18.898438 1.84375 18.160156 2.328125 L 1.730469 13.140625 C 1.195313 13.492188 0.859375 14.074219 0.828125 14.714844 C 0.796875 15.351563 1.070313 15.96875 1.570313 16.371094 L 12.121094 24.890625 L 1.570313 33.410156 C 1.070313 33.8125 0.796875 34.425781 0.828125 35.066406 C 0.859375 35.703125 1.195313 36.289063 1.730469 36.640625 L 12 43.390625 L 12 49.589844 C 12 50.648438 12.558594 51.628906 13.46875 52.171875 L 30.46875 62.25 C 31.414063 62.808594 32.585938 62.808594 33.53125 62.25 L 50.53125 52.171875 C 51.441406 51.628906 52 50.648438 52 49.589844 L 52 43.769531 C 51.992188 43.683594 51.976563 43.601563 51.949219 43.519531 L 62.398438 36.628906 C 62.933594 36.28125 63.269531 35.695313 63.300781 35.054688 C 63.332031 34.417969 63.058594 33.800781 62.558594 33.398438 Z M 44.871094 4 L 61.308594 14.808594 L 50.308594 23.660156 L 33.761719 13.351563 Z M 19.261719 4 L 31.421875 14.230469 L 31.488281 14.230469 L 48.488281 24.800781 L 32.148438 35.078125 L 32.070313 35 L 31.980469 35.070313 L 15.609375 24.890625 L 24.609375 19.289063 C 25.078125 18.996094 25.222656 18.378906 24.929688 17.910156 C 24.636719 17.441406 24.019531 17.296875 23.550781 17.589844 L 13.800781 23.660156 L 2.800781 14.808594 Z M 13.789063 26.109375 L 30.371094 36.429688 L 19.261719 45.78125 L 2.828125 35 Z M 50 49.589844 C 50 49.941406 49.8125 50.269531 49.511719 50.449219 L 32.511719 60.53125 C 32.199219 60.707031 31.820313 60.707031 31.511719 60.53125 L 14.511719 50.449219 C 14.207031 50.269531 14.019531 49.941406 14.019531 49.589844 L 14.019531 44.710938 L 18.179688 47.449219 C 18.917969 47.9375 19.890625 47.882813 20.570313 47.308594 L 32.089844 37.621094 L 43.609375 47.308594 C 44.289063 47.882813 45.261719 47.9375 46 47.449219 L 50 44.800781 Z M 44.871094 45.78125 L 33.761719 36.429688 L 50.339844 26.109375 L 61.339844 34.960938 Z "/>
<path style=" fill:#8D6C9F;" d="M 33 41 L 31 41 C 30.449219 41 30 41.449219 30 42 C 30 42.550781 30.449219 43 31 43 L 33 43 C 33.550781 43 34 42.550781 34 42 C 34 41.449219 33.550781 41 33 41 Z "/>
<path style=" fill:#8D6C9F;" d="M 33 46 L 31 46 C 30.449219 46 30 46.449219 30 47 C 30 47.550781 30.449219 48 31 48 L 33 48 C 33.550781 48 34 47.550781 34 47 C 34 46.449219 33.550781 46 33 46 Z "/>
<path style=" fill:#8D6C9F;" d="M 33 51 L 31 51 C 30.449219 51 30 51.449219 30 52 C 30 52.550781 30.449219 53 31 53 L 33 53 C 33.550781 53 34 52.550781 34 52 C 34 51.449219 33.550781 51 33 51 Z "/>
<path style=" fill:#8D6C9F;" d="M 33 56 L 31 56 C 30.449219 56 30 56.449219 30 57 C 30 57.550781 30.449219 58 31 58 L 33 58 C 33.550781 58 34 57.550781 34 57 C 34 56.449219 33.550781 56 33 56 Z "/>
</g>
</svg>
