<?xml version="1.0" ?><svg enable-background="new 0 0 52 52" id="Layer_1" version="1.1" viewBox="0 0 52 52" xml:space="preserve" xmlns="http://www.w3.org/2000/svg" xmlns:xlink="http://www.w3.org/1999/xlink"><g><g><path d="M12.1642075,18.6754456c-1.270874,2.2702026-2.0026245,4.8804932-2.0026245,7.6602783v11.7402344    h31.4899902V26.3357239c0-2.3401489-0.5272217-4.5554199-1.4468994-6.5545044l5.3564453-5.2824097    c0.3930664-0.3876953,0.3974609-1.0209961,0.0097656-1.4140625c-0.3876953-0.3925781-1.0205078-0.3984375-1.4140625-0.0097656    l-4.9451904,4.8768921c-1.0197144-1.6136475-2.3222046-3.0251465-3.840271-4.1732788    c0.0001831-0.0005493,0.0006104-0.0009155,0.0007935-0.0014648l1.7348633-5.0732422    c0.1787109-0.5229492-0.1000977-1.0913086-0.6225586-1.2700195c-0.5224609-0.1782227-1.0913086,0.1000977-1.2700195,0.6225586    l-1.5661621,4.5799561c-2.0134277-1.1434326-4.3009033-1.8458252-6.7385254-2v-7.762085c0-0.5522461-0.4477539-1-1-1    s-1,0.4477539-1,1v7.7622681c-2.2161865,0.1407471-4.3081055,0.7348633-6.18396,1.7025757L17.2618027,8.056427    c-0.1791992-0.5224609-0.7485352-0.8017578-1.2695313-0.6225586c-0.5229492,0.1787109-0.8017578,0.7470703-0.6230469,1.2695313    l1.6012573,4.6842651c-1.4185791,0.9830322-2.6594849,2.197998-3.6885376,3.5814209L8.321373,12.0774231    c-0.3935547-0.3881836-1.0273438-0.3828125-1.4140625,0.0097656c-0.3876953,0.3930664-0.3833008,1.0263672,0.0097656,1.4140625    L12.1642075,18.6754456z" fill="#F93E2B"/></g><g><path d="M42.9415512,40.7657166c-0.1300049-0.4099731-0.5199585-0.6900024-0.9500122-0.6900024H9.8215561    c-0.4299927,0-0.8099976,0.2800293-0.9500122,0.6900024l-2.6799927,8.039978    c-0.0999756,0.3000488-0.0499878,0.6400146,0.1400146,0.9000244s0.4899902,0.4199829,0.8099976,0.4199829h37.5300293    c0.3299561,0,0.6299438-0.1599731,0.8199463-0.4199829c0.1800537-0.2600098,0.2400513-0.5999756,0.1300049-0.9000244    L42.9415512,40.7657166z"/></g></g></svg>