<svg width="90" height="90" xmlns="http://www.w3.org/2000/svg">

 <g>
  <title>background</title>
  <rect fill="none" id="canvas_background" height="92" width="92" y="-1" x="-1"/>
 </g>
 <g>
  <title>Layer 1</title>
  <g stroke="null" id="svg_21">
   <path stroke="null" fill="#81cf08" id="svg_3" d="m44.783086,87.353936c-1.194785,0 -2.256816,-0.265508 -3.318847,-0.929277l-10.354802,-6.106678c-1.593046,-0.929277 -0.796523,-1.194785 -0.265508,-1.327539c2.124062,-0.796523 2.522324,-0.929277 4.646385,-2.124062c0.265508,-0.132754 0.531015,-0.132754 0.796523,0.132754l7.965232,4.779139c0.265508,0.132754 0.663769,0.132754 0.929277,0l31.064405,-17.921772c0.265508,-0.132754 0.531015,-0.531015 0.531015,-0.796523l0,-35.843545c0,-0.398262 -0.132754,-0.663769 -0.531015,-0.796523l-30.931652,-18.054526c-0.265508,-0.132754 -0.663769,-0.132754 -0.929277,0l-31.064405,17.789019c-0.265508,0.132754 -0.531015,0.531015 -0.531015,0.796523l0,35.843545c0,0.265508 0.132754,0.663769 0.531015,0.796523l8.496248,4.911893c4.646385,2.256816 7.434217,-0.398262 7.434217,-3.186093l0,-35.179775c0,-0.531015 0.398262,-0.929277 0.929277,-0.929277l3.982616,0c0.531015,0 0.929277,0.398262 0.929277,0.929277l0,35.312529c0,6.239432 -3.318847,9.691032 -9.160017,9.691032c-1.858554,0 -3.186093,0 -7.168709,-1.991308l-8.097986,-4.646385c-1.991308,-1.194785 -3.318847,-3.318847 -3.318847,-5.708416l0,-35.843545c0,-2.256816 1.194785,-4.513632 3.318847,-5.708416l31.064405,-17.921772c1.991308,-1.062031 4.646385,-1.062031 6.50494,0l31.064405,17.921772c1.991308,1.194785 3.318847,3.318847 3.318847,5.708416l0,35.843545c0,2.256816 -1.194785,4.513632 -3.318847,5.708416l-31.197159,18.054526c-1.062031,0.531015 -2.124062,0.796523 -3.318847,0.796523z" class="st1"/>
   <path stroke="null" fill="#81cf08" id="svg_4" d="m54.474118,62.661716c-13.540895,0 -16.46148,-6.239432 -16.46148,-11.416833c0,-0.531015 0.398262,-0.929277 0.929277,-0.929277l3.982616,0c0.398262,0 0.796523,0.265508 0.929277,0.796523c0.531015,4.11537 2.38957,6.106678 10.62031,6.106678c6.50494,0 9.292771,-1.460293 9.292771,-4.911893c0,-1.991308 -0.796523,-3.451601 -11.018571,-4.513632c-8.496248,-0.796523 -13.806402,-2.655077 -13.806402,-9.558279c0,-6.239432 5.310155,-9.95654 14.204664,-9.95654c9.95654,0 14.868433,3.451601 15.532203,10.885817c0,0.265508 -0.132754,0.531015 -0.265508,0.663769c-0.132754,0.132754 -0.398262,0.265508 -0.663769,0.265508l-3.982616,0c-0.398262,0 -0.796523,-0.265508 -0.929277,-0.663769c-0.929277,-4.248124 -3.318847,-5.708416 -9.691032,-5.708416c-7.168709,0 -7.965232,2.522324 -7.965232,4.380878c0,2.256816 0.929277,2.920585 10.62031,4.248124c9.558279,1.194785 14.07191,3.053339 14.07191,9.691032c0,6.770447 -5.575663,10.62031 -15.399449,10.62031z" class="st1"/>
  </g>
 </g>
</svg>