<?xml version="1.0" encoding="UTF-8"?>
<svg xmlns="http://www.w3.org/2000/svg" xmlns:xlink="http://www.w3.org/1999/xlink" viewBox="0 0 64 64" version="1.1" width="16px" height="16px">
<g id="surface1">
<path style=" fill:#7BBEEB;" d="M 49 27 L 49 49 L 10 49 C 5.203125 49.027344 1.226563 45.289063 0.960938 40.5 C 0.691406 35.710938 4.230469 31.554688 9 31.050781 C 9 30.710938 9 30.359375 9 30 C 9 26.378906 10.957031 23.042969 14.117188 21.277344 C 17.277344 19.507813 21.144531 19.585938 24.230469 21.480469 C 26.816406 15.964844 32.882813 12.984375 38.828125 14.3125 C 44.773438 15.636719 49 20.910156 49 27 Z "/>
<path style=" fill:#85CBF8;" d="M 43.851563 19.511719 C 43.160156 20.191406 42.082031 20.28125 41.289063 19.71875 C 38.289063 17.542969 34.261719 17.425781 31.140625 19.429688 C 30.355469 19.894531 29.355469 19.773438 28.710938 19.128906 C 28.289063 18.707031 28.074219 18.121094 28.132813 17.527344 C 28.1875 16.933594 28.507813 16.394531 29 16.058594 C 33.507813 13.167969 39.328125 13.332031 43.660156 16.480469 C 44.125 16.832031 44.414063 17.367188 44.453125 17.953125 C 44.488281 18.535156 44.269531 19.101563 43.851563 19.511719 Z "/>
<path style=" fill:#7BBEEB;" d="M 49 27 L 49 49 L 10 49 C 5.203125 49.027344 1.226563 45.289063 0.960938 40.5 C 0.691406 35.710938 4.230469 31.554688 9 31.050781 C 9 30.710938 9 30.359375 9 30 C 9 26.378906 10.957031 23.042969 14.117188 21.277344 C 17.277344 19.507813 21.144531 19.585938 24.230469 21.480469 C 24.921875 19.988281 25.894531 18.648438 27.101563 17.53125 L 29.941406 20.359375 C 33.5625 17.054688 39.167969 17.257813 42.539063 20.820313 L 45.371094 18 C 47.695313 20.417969 48.996094 23.644531 49 27 Z "/>
<path style=" fill:#75B8E5;" d="M 44 44 L 44 49 L 10 49 C 6.582031 49 3.460938 47.0625 1.941406 44 Z "/>
<path style=" fill:#85CBF8;" d="M 63 47.5 C 63.003906 48.351563 62.855469 49.199219 62.558594 50 C 61.503906 52.996094 58.675781 55 55.5 55 L 23 55 C 19.738281 55 16.804688 53.023438 15.578125 50 C 15.199219 49.046875 15 48.027344 15 47 C 15 42.582031 18.582031 39 23 39 C 23.355469 38.996094 23.707031 39.019531 24.058594 39.070313 C 24.019531 38.714844 24 38.359375 24 38 C 24.011719 33.289063 27.304688 29.226563 31.914063 28.242188 C 36.519531 27.257813 41.1875 29.625 43.121094 33.921875 C 45.613281 31.878906 49.046875 31.421875 51.988281 32.742188 C 54.929688 34.058594 56.871094 36.929688 57 40.148438 C 60.492188 40.863281 63 43.933594 63 47.5 Z "/>
<path style=" fill:#85CBF8;" d="M 63 47.5 C 63.003906 48.351563 62.855469 49.199219 62.558594 50 C 61.503906 52.996094 58.675781 55 55.5 55 L 23 55 C 19.738281 55 16.804688 53.023438 15.578125 50 C 15.199219 49.046875 15 48.027344 15 47 C 15 42.582031 18.582031 39 23 39 C 23.355469 38.996094 23.707031 39.019531 24.058594 39.070313 C 24.019531 38.714844 24 38.359375 24 38 L 28 38 C 28.011719 35.183594 29.984375 32.753906 32.742188 32.160156 C 35.496094 31.570313 38.292969 32.976563 39.460938 35.539063 L 42.398438 32.601563 C 42.671875 33.023438 42.910156 33.464844 43.121094 33.921875 C 45.613281 31.878906 49.046875 31.421875 51.988281 32.742188 C 54.929688 34.058594 56.871094 36.929688 57 40.148438 C 60.492188 40.863281 63 43.933594 63 47.5 Z "/>
<path style=" fill:#7BBEEB;" d="M 62.558594 50 C 61.503906 52.996094 58.675781 55 55.5 55 L 23 55 C 19.738281 55 16.804688 53.023438 15.578125 50 Z "/>
<path style=" fill:#8D6C9F;" d="M 57.929688 39.351563 C 57.433594 35.136719 54.191406 31.773438 50 31.121094 L 50 27 C 50.003906 20.636719 45.714844 15.074219 39.5625 13.457031 C 33.410156 11.835938 26.9375 14.570313 23.808594 20.109375 C 20.402344 18.453125 16.378906 18.667969 13.167969 20.675781 C 9.953125 22.6875 8 26.210938 8 30 L 8 30.199219 C 2.964844 31.222656 -0.476563 35.894531 0.0390625 41.003906 C 0.558594 46.117188 4.863281 50.003906 10 50 L 14.519531 50 C 15.789063 53.59375 19.1875 55.996094 23 56 L 55.5 56 C 59.726563 56.007813 63.316406 52.910156 63.925781 48.726563 C 64.539063 44.546875 61.980469 40.550781 57.929688 39.351563 Z M 10 48 C 5.582031 48.234375 1.808594 44.84375 1.574219 40.425781 C 1.339844 36.007813 4.730469 32.234375 9.148438 32 C 9.644531 31.925781 10.003906 31.5 10 31 C 10 30.691406 10 30.371094 10 30 C 10 25.03125 14.03125 21 19 21 C 20.660156 20.996094 22.289063 21.457031 23.699219 22.328125 C 23.945313 22.484375 24.242188 22.523438 24.515625 22.441406 C 24.792969 22.359375 25.019531 22.160156 25.140625 21.898438 C 27.53125 16.816406 33.128906 14.070313 38.613281 15.292969 C 44.097656 16.515625 47.996094 21.382813 48 27 L 48 31 C 46.398438 31.082031 44.839844 31.570313 43.480469 32.421875 C 40.964844 28.144531 35.894531 26.082031 31.109375 27.386719 C 26.320313 28.691406 23 33.039063 23 38 C 18.03125 38 14 42.03125 14 47 C 14 47.335938 14.019531 47.667969 14.058594 48 Z M 55.5 54 L 23 54 C 20.296875 54 17.839844 52.441406 16.679688 50 C 16.371094 49.371094 16.167969 48.695313 16.078125 48 C 16.023438 47.667969 15.996094 47.335938 16 47 C 16 43.132813 19.132813 40 23 40 C 23.308594 39.996094 23.613281 40.019531 23.921875 40.058594 C 24.226563 40.105469 24.535156 40.003906 24.761719 39.789063 C 24.984375 39.570313 25.089844 39.261719 25.050781 38.949219 C 25.050781 38.640625 25.050781 38.320313 25.050781 38 C 25.058594 33.757813 28.027344 30.097656 32.171875 29.214844 C 36.320313 28.332031 40.523438 30.460938 42.261719 34.328125 C 42.390625 34.613281 42.640625 34.816406 42.941406 34.886719 C 43.242188 34.957031 43.558594 34.886719 43.800781 34.691406 C 44.992188 33.710938 46.460938 33.121094 48 33 L 48.5 33 C 52.527344 32.992188 55.839844 36.167969 56 40.191406 C 56.019531 40.648438 56.347656 41.039063 56.800781 41.128906 C 60.074219 41.792969 62.308594 44.832031 61.972656 48.152344 C 61.636719 51.476563 58.839844 54.003906 55.5 54 Z "/>
<path style=" fill:#8D6C9F;" d="M 26 48 C 25.449219 48 25 48.449219 25 49 L 25 51 C 25 51.550781 25.449219 52 26 52 C 26.550781 52 27 51.550781 27 51 L 27 49 C 27 48.449219 26.550781 48 26 48 Z "/>
<path style=" fill:#8D6C9F;" d="M 21 48 C 20.449219 48 20 48.449219 20 49 L 20 51 C 20 51.550781 20.449219 52 21 52 C 21.550781 52 22 51.550781 22 51 L 22 49 C 22 48.449219 21.550781 48 21 48 Z "/>
<path style=" fill:#8D6C9F;" d="M 31 48 C 30.449219 48 30 48.449219 30 49 L 30 51 C 30 51.550781 30.449219 52 31 52 C 31.550781 52 32 51.550781 32 51 L 32 49 C 32 48.449219 31.550781 48 31 48 Z "/>
<path style=" fill:#8D6C9F;" d="M 36 48 C 35.449219 48 35 48.449219 35 49 L 35 51 C 35 51.550781 35.449219 52 36 52 C 36.550781 52 37 51.550781 37 51 L 37 49 C 37 48.449219 36.550781 48 36 48 Z "/>
<path style=" fill:#8D6C9F;" d="M 41 48 C 40.449219 48 40 48.449219 40 49 L 40 51 C 40 51.550781 40.449219 52 41 52 C 41.550781 52 42 51.550781 42 51 L 42 49 C 42 48.449219 41.550781 48 41 48 Z "/>
<path style=" fill:#8D6C9F;" d="M 46 48 C 45.449219 48 45 48.449219 45 49 L 45 51 C 45 51.550781 45.449219 52 46 52 C 46.550781 52 47 51.550781 47 51 L 47 49 C 47 48.449219 46.550781 48 46 48 Z "/>
<path style=" fill:#8D6C9F;" d="M 51 48 C 50.449219 48 50 48.449219 50 49 L 50 51 C 50 51.550781 50.449219 52 51 52 C 51.550781 52 52 51.550781 52 51 L 52 49 C 52 48.449219 51.550781 48 51 48 Z "/>
<path style=" fill:#8D6C9F;" d="M 56 48 C 55.449219 48 55 48.449219 55 49 L 55 51 C 55 51.550781 55.449219 52 56 52 C 56.550781 52 57 51.550781 57 51 L 57 49 C 57 48.449219 56.550781 48 56 48 Z "/>
<path style=" fill:#8D6C9F;" d="M 12 42 C 11.449219 42 11 42.449219 11 43 L 11 45 C 11 45.550781 11.449219 46 12 46 C 12.550781 46 13 45.550781 13 45 L 13 43 C 13 42.449219 12.550781 42 12 42 Z "/>
<path style=" fill:#8D6C9F;" d="M 7 42 C 6.449219 42 6 42.449219 6 43 L 6 45 C 6 45.550781 6.449219 46 7 46 C 7.550781 46 8 45.550781 8 45 L 8 43 C 8 42.449219 7.550781 42 7 42 Z "/>
</g>
</svg>
