<?xml version="1.0"?>
<svg xmlns="http://www.w3.org/2000/svg" xmlns:xlink="http://www.w3.org/1999/xlink" version="1.1" viewBox="0 0 252 252" width="16px" height="16px"><g transform="translate(7.56,7.56) scale(0.94,0.94)"><g fill="none" fill-rule="nonzero" stroke="none" stroke-width="none" stroke-linecap="butt" stroke-linejoin="none" stroke-miterlimit="10" stroke-dasharray="" stroke-dashoffset="0" font-family="none" font-weight="none" font-size="none" text-anchor="none" style="mix-blend-mode: normal"><g id="original-icon 1" fill="#0d8dd2" stroke="#ffffff" stroke-width="16" stroke-linejoin="round"><g id="surface1 1"><path d="M246.96,126c0,36.73688 -53.13656,65.52 -120.96,65.52c-67.82344,0 -120.96,-28.78312 -120.96,-65.52c0,-36.73687 53.13656,-65.52 120.96,-65.52c67.82344,0 120.96,28.78313 120.96,65.52zM100.8,141.12h13.23l6.37875,-30.24h10.57219c3.36656,0 5.61094,0.55125 6.63469,1.67344c1.02375,1.12219 1.26,3.24844 0.66937,6.3l-4.82344,22.26656h13.42687l5.23688,-24.07781c1.12219,-5.76844 0.27562,-10.00125 -2.52,-12.58031c-2.85469,-2.61844 -7.875,-3.66188 -15.35625,-3.66188h-11.79281l4.19344,-20.16h-13.21031zM45.22219,156.24h13.34813l2.63812,-15.12h8.30813c17.36437,0 26.81437,-4.03594 30.33844,-18.91969c3.03188,-12.81656 -4.725,-21.40031 -17.54156,-21.40031h-26.87344zM151.06219,156.24h13.34813l2.63812,-15.12h8.30813c17.36437,0 26.81437,-4.03594 30.33844,-18.91969c3.03188,-12.81656 -4.725,-21.40031 -17.54156,-21.40031h-26.87344zM77.27344,110.88c8.62313,0 10.41469,3.87844 9.98156,8.19c-1.16156,11.12344 -8.09156,11.97 -15.55312,11.97h-8.62313l3.79969,-20.16zM183.11344,110.88c8.62313,0 10.41469,3.87844 9.98156,8.19c-1.16156,11.12344 -8.09156,11.97 -15.55312,11.97h-8.62313l3.79969,-20.16z"/></g></g><path d="M0,252v-252h252v252z" fill="none" stroke="none" stroke-width="1" stroke-linejoin="miter"/><g id="original-icon" fill="#0d8dd2" stroke="none" stroke-width="1" stroke-linejoin="miter"><g id="surface1"><path d="M126,60.48c-67.82344,0 -120.96,28.78313 -120.96,65.52c0,36.73688 53.13656,65.52 120.96,65.52c67.82344,0 120.96,-28.78312 120.96,-65.52c0,-36.73687 -53.13656,-65.52 -120.96,-65.52zM113.43938,80.64h13.21031l-4.19344,20.16h11.79281c7.48125,0 12.50156,1.04344 15.35625,3.66188c2.79562,2.57906 3.64219,6.81187 2.52,12.58031l-5.23688,24.07781h-13.42687l4.82344,-22.26656c0.59063,-3.05156 0.35438,-5.17781 -0.66937,-6.3c-1.02375,-1.12219 -3.26813,-1.67344 -6.63469,-1.67344h-10.57219l-6.37875,30.24h-13.23zM55.44,100.8h26.87344c12.81656,0 20.57344,8.58375 17.54156,21.40031c-3.52406,14.88375 -12.97406,18.91969 -30.33844,18.91969h-8.30813l-2.63812,15.12h-13.34813zM161.28,100.8h26.87344c12.81656,0 20.57344,8.58375 17.54156,21.40031c-3.52406,14.88375 -12.97406,18.91969 -30.33844,18.91969h-8.30813l-2.63812,15.12h-13.34813zM66.87844,110.88l-3.79969,20.16h8.62313c7.46156,0 14.39156,-0.84656 15.55312,-11.97c0.43313,-4.31156 -1.35844,-8.19 -9.98156,-8.19zM172.71844,110.88l-3.79969,20.16h8.62313c7.46156,0 14.39156,-0.84656 15.55312,-11.97c0.43313,-4.31156 -1.35844,-8.19 -9.98156,-8.19z"/></g></g><path d="" fill="none" stroke="none" stroke-width="1" stroke-linejoin="miter"/><path d="" fill="none" stroke="none" stroke-width="1" stroke-linejoin="miter"/><path d="M126,252c-69.58788,0 -126,-56.41212 -126,-126v0c0,-69.58788 56.41212,-126 126,-126v0c69.58788,0 126,56.41212 126,126v0c0,69.58788 -56.41212,126 -126,126z" fill="none" stroke="none" stroke-width="1" stroke-linejoin="miter"/><path d="M126,246.96c-66.80436,0 -120.96,-54.15564 -120.96,-120.96v0c0,-66.80436 54.15564,-120.96 120.96,-120.96h0c66.80436,0 120.96,54.15564 120.96,120.96v0c0,66.80436 -54.15564,120.96 -120.96,120.96z" fill="none" stroke="none" stroke-width="1" stroke-linejoin="miter"/><path d="M126,252c-69.58788,0 -126,-56.41212 -126,-126v0c0,-69.58788 56.41212,-126 126,-126v0c69.58788,0 126,56.41212 126,126v0c0,69.58788 -56.41212,126 -126,126z" fill="none" stroke="none" stroke-width="1" stroke-linejoin="miter"/><path d="M126,241.92c-64.02085,0 -115.92,-51.89915 -115.92,-115.92v0c0,-64.02085 51.89915,-115.92 115.92,-115.92h0c64.02085,0 115.92,51.89915 115.92,115.92v0c0,64.02085 -51.89915,115.92 -115.92,115.92z" fill="none" stroke="none" stroke-width="1" stroke-linejoin="miter"/><path d="M126,252c-69.58788,0 -126,-56.41212 -126,-126v0c0,-69.58788 56.41212,-126 126,-126v0c69.58788,0 126,56.41212 126,126v0c0,69.58788 -56.41212,126 -126,126z" fill="none" stroke="none" stroke-width="1" stroke-linejoin="miter"/><path d="M126,246.96c-66.80436,0 -120.96,-54.15564 -120.96,-120.96v0c0,-66.80436 54.15564,-120.96 120.96,-120.96h0c66.80436,0 120.96,54.15564 120.96,120.96v0c0,66.80436 -54.15564,120.96 -120.96,120.96z" fill="none" stroke="none" stroke-width="1" stroke-linejoin="miter"/><path d="M126,250.74c-68.892,0 -124.74,-55.848 -124.74,-124.74v0c0,-68.892 55.848,-124.74 124.74,-124.74h0c68.892,0 124.74,55.848 124.74,124.74v0c0,68.892 -55.848,124.74 -124.74,124.74z" fill="none" stroke="none" stroke-width="1" stroke-linejoin="miter"/><path d="M126,245.7c-66.10848,0 -119.7,-53.59152 -119.7,-119.7v0c0,-66.10848 53.59152,-119.7 119.7,-119.7v0c66.10848,0 119.7,53.59152 119.7,119.7v0c0,66.10848 -53.59152,119.7 -119.7,119.7z" fill="none" stroke="none" stroke-width="1" stroke-linejoin="miter"/><path d="M126,246.96c-66.80436,0 -120.96,-54.15564 -120.96,-120.96v0c0,-66.80436 54.15564,-120.96 120.96,-120.96h0c66.80436,0 120.96,54.15564 120.96,120.96v0c0,66.80436 -54.15564,120.96 -120.96,120.96z" fill="none" stroke="none" stroke-width="1" stroke-linejoin="miter"/><path d="M126,241.92c-64.02085,0 -115.92,-51.89915 -115.92,-115.92v0c0,-64.02085 51.89915,-115.92 115.92,-115.92v0c64.02085,0 115.92,51.89915 115.92,115.92v0c0,64.02085 -51.89915,115.92 -115.92,115.92z" fill="none" stroke="none" stroke-width="1" stroke-linejoin="miter"/><path d="M126,241.92c-64.02085,0 -115.92,-51.89915 -115.92,-115.92v0c0,-64.02085 51.89915,-115.92 115.92,-115.92h0c64.02085,0 115.92,51.89915 115.92,115.92v0c0,64.02085 -51.89915,115.92 -115.92,115.92z" fill="none" stroke="none" stroke-width="1" stroke-linejoin="miter"/><path d="M126,236.88c-61.23733,0 -110.88,-49.64267 -110.88,-110.88v0c0,-61.23733 49.64267,-110.88 110.88,-110.88v0c61.23733,0 110.88,49.64267 110.88,110.88v0c0,61.23733 -49.64267,110.88 -110.88,110.88z" fill="none" stroke="none" stroke-width="1" stroke-linejoin="miter"/><path d="M126,235.62c-60.54145,0 -109.62,-49.07855 -109.62,-109.62v0c0,-60.54145 49.07855,-109.62 109.62,-109.62v0c60.54145,0 109.62,49.07855 109.62,109.62v0c0,60.54145 -49.07855,109.62 -109.62,109.62z" fill="none" stroke="none" stroke-width="1" stroke-linejoin="miter"/><path d="M126,230.58c-57.75794,0 -104.58,-46.82206 -104.58,-104.58v0c0,-57.75794 46.82206,-104.58 104.58,-104.58h0c57.75794,0 104.58,46.82206 104.58,104.58v0c0,57.75794 -46.82206,104.58 -104.58,104.58z" fill="none" stroke="none" stroke-width="1" stroke-linejoin="miter"/><path d="M126,230.58c-57.75794,0 -104.58,-46.82206 -104.58,-104.58v0c0,-57.75794 46.82206,-104.58 104.58,-104.58h0c57.75794,0 104.58,46.82206 104.58,104.58v0c0,57.75794 -46.82206,104.58 -104.58,104.58z" fill="none" stroke="none" stroke-width="1" stroke-linejoin="miter"/><path d="M126,225.54c-54.97442,0 -99.54,-44.56558 -99.54,-99.54v0c0,-54.97442 44.56558,-99.54 99.54,-99.54v0c54.97442,0 99.54,44.56558 99.54,99.54v0c0,54.97442 -44.56558,99.54 -99.54,99.54z" fill="none" stroke="none" stroke-width="1" stroke-linejoin="miter"/><path d="M126,226.8c-55.6703,0 -100.8,-45.1297 -100.8,-100.8v0c0,-55.6703 45.1297,-100.8 100.8,-100.8h0c55.6703,0 100.8,45.1297 100.8,100.8v0c0,55.6703 -45.1297,100.8 -100.8,100.8z" fill="none" stroke="none" stroke-width="1" stroke-linejoin="miter"/><path d="M126,221.76c-52.88679,0 -95.76,-42.87321 -95.76,-95.76v0c0,-52.88679 42.87321,-95.76 95.76,-95.76v0c52.88679,0 95.76,42.87321 95.76,95.76v0c0,52.88679 -42.87321,95.76 -95.76,95.76z" fill="none" stroke="none" stroke-width="1" stroke-linejoin="miter"/><path d="M126,225.54c-54.97442,0 -99.54,-44.56558 -99.54,-99.54v0c0,-54.97442 44.56558,-99.54 99.54,-99.54h0c54.97442,0 99.54,44.56558 99.54,99.54v0c0,54.97442 -44.56558,99.54 -99.54,99.54z" fill="none" stroke="none" stroke-width="1" stroke-linejoin="miter"/><path d="M126,220.5c-52.19091,0 -94.5,-42.30909 -94.5,-94.5v0c0,-52.19091 42.30909,-94.5 94.5,-94.5v0c52.19091,0 94.5,42.30909 94.5,94.5v0c0,52.19091 -42.30909,94.5 -94.5,94.5z" fill="none" stroke="none" stroke-width="1" stroke-linejoin="miter"/><path d="M126,224.28c-54.27855,0 -98.28,-44.00145 -98.28,-98.28v0c0,-54.27855 44.00145,-98.28 98.28,-98.28v0c54.27855,0 98.28,44.00145 98.28,98.28v0c0,54.27855 -44.00145,98.28 -98.28,98.28z" fill="none" stroke="none" stroke-width="1" stroke-linejoin="miter"/><path d="M126,219.24c-51.49503,0 -93.24,-41.74497 -93.24,-93.24v0c0,-51.49503 41.74497,-93.24 93.24,-93.24h0c51.49503,0 93.24,41.74497 93.24,93.24v0c0,51.49503 -41.74497,93.24 -93.24,93.24z" fill="none" stroke="none" stroke-width="1" stroke-linejoin="miter"/><path d="M126,223.02c-53.58267,0 -97.02,-43.43733 -97.02,-97.02v0c0,-53.58267 43.43733,-97.02 97.02,-97.02h0c53.58267,0 97.02,43.43733 97.02,97.02v0c0,53.58267 -43.43733,97.02 -97.02,97.02z" fill="none" stroke="none" stroke-width="1" stroke-linejoin="miter"/><path d="M126,217.98c-50.79915,0 -91.98,-41.18085 -91.98,-91.98v0c0,-50.79915 41.18085,-91.98 91.98,-91.98v0c50.79915,0 91.98,41.18085 91.98,91.98v0c0,50.79915 -41.18085,91.98 -91.98,91.98z" fill="none" stroke="none" stroke-width="1" stroke-linejoin="miter"/><path d="M126,221.76c-52.88679,0 -95.76,-42.87321 -95.76,-95.76v0c0,-52.88679 42.87321,-95.76 95.76,-95.76h0c52.88679,0 95.76,42.87321 95.76,95.76v0c0,52.88679 -42.87321,95.76 -95.76,95.76z" fill="none" stroke="none" stroke-width="1" stroke-linejoin="miter"/><path d="M126,216.72c-50.10327,0 -90.72,-40.61673 -90.72,-90.72v0c0,-50.10327 40.61673,-90.72 90.72,-90.72v0c50.10327,0 90.72,40.61673 90.72,90.72v0c0,50.10327 -40.61673,90.72 -90.72,90.72z" fill="none" stroke="none" stroke-width="1" stroke-linejoin="miter"/><path d="M126,220.5c-52.19091,0 -94.5,-42.30909 -94.5,-94.5v0c0,-52.19091 42.30909,-94.5 94.5,-94.5v0c52.19091,0 94.5,42.30909 94.5,94.5v0c0,52.19091 -42.30909,94.5 -94.5,94.5z" fill="none" stroke="none" stroke-width="1" stroke-linejoin="miter"/><path d="M126,215.46c-49.40739,0 -89.46,-40.05261 -89.46,-89.46v0c0,-49.40739 40.05261,-89.46 89.46,-89.46h0c49.40739,0 89.46,40.05261 89.46,89.46v0c0,49.40739 -40.05261,89.46 -89.46,89.46z" fill="none" stroke="none" stroke-width="1" stroke-linejoin="miter"/><path d="M126,219.24c-51.49503,0 -93.24,-41.74497 -93.24,-93.24v0c0,-51.49503 41.74497,-93.24 93.24,-93.24h0c51.49503,0 93.24,41.74497 93.24,93.24v0c0,51.49503 -41.74497,93.24 -93.24,93.24z" fill="none" stroke="none" stroke-width="1" stroke-linejoin="miter"/><path d="M126,214.2c-48.71151,0 -88.2,-39.48849 -88.2,-88.2v0c0,-48.71151 39.48849,-88.2 88.2,-88.2v0c48.71151,0 88.2,39.48849 88.2,88.2v0c0,48.71151 -39.48849,88.2 -88.2,88.2z" fill="none" stroke="none" stroke-width="1" stroke-linejoin="miter"/><path d="M126,217.98c-50.79915,0 -91.98,-41.18085 -91.98,-91.98v0c0,-50.79915 41.18085,-91.98 91.98,-91.98h0c50.79915,0 91.98,41.18085 91.98,91.98v0c0,50.79915 -41.18085,91.98 -91.98,91.98z" fill="none" stroke="none" stroke-width="1" stroke-linejoin="miter"/><path d="M126,212.94c-48.01564,0 -86.94,-38.92436 -86.94,-86.94v0c0,-48.01564 38.92436,-86.94 86.94,-86.94v0c48.01564,0 86.94,38.92436 86.94,86.94v0c0,48.01564 -38.92436,86.94 -86.94,86.94z" fill="none" stroke="none" stroke-width="1" stroke-linejoin="miter"/><path d="M126,216.72c-50.10327,0 -90.72,-40.61673 -90.72,-90.72v0c0,-50.10327 40.61673,-90.72 90.72,-90.72v0c50.10327,0 90.72,40.61673 90.72,90.72v0c0,50.10327 -40.61673,90.72 -90.72,90.72z" fill="none" stroke="none" stroke-width="1" stroke-linejoin="miter"/><path d="M126,211.68c-47.31976,0 -85.68,-38.36024 -85.68,-85.68v0c0,-47.31976 38.36024,-85.68 85.68,-85.68h0c47.31976,0 85.68,38.36024 85.68,85.68v0c0,47.31976 -38.36024,85.68 -85.68,85.68z" fill="none" stroke="none" stroke-width="1" stroke-linejoin="miter"/><path d="M126,215.46c-49.40739,0 -89.46,-40.05261 -89.46,-89.46v0c0,-49.40739 40.05261,-89.46 89.46,-89.46h0c49.40739,0 89.46,40.05261 89.46,89.46v0c0,49.40739 -40.05261,89.46 -89.46,89.46z" fill="none" stroke="none" stroke-width="1" stroke-linejoin="miter"/><path d="M126,210.42c-46.62388,0 -84.42,-37.79612 -84.42,-84.42v0c0,-46.62388 37.79612,-84.42 84.42,-84.42v0c46.62388,0 84.42,37.79612 84.42,84.42v0c0,46.62388 -37.79612,84.42 -84.42,84.42z" fill="none" stroke="none" stroke-width="1" stroke-linejoin="miter"/><path d="M126,214.2c-48.71151,0 -88.2,-39.48849 -88.2,-88.2v0c0,-48.71151 39.48849,-88.2 88.2,-88.2h0c48.71151,0 88.2,39.48849 88.2,88.2v0c0,48.71151 -39.48849,88.2 -88.2,88.2z" fill="none" stroke="none" stroke-width="1" stroke-linejoin="miter"/><path d="M126,209.16c-45.928,0 -83.16,-37.232 -83.16,-83.16v0c0,-45.928 37.232,-83.16 83.16,-83.16v0c45.928,0 83.16,37.232 83.16,83.16v0c0,45.928 -37.232,83.16 -83.16,83.16z" fill="none" stroke="none" stroke-width="1" stroke-linejoin="miter"/><path d="M126,212.94c-48.01564,0 -86.94,-38.92436 -86.94,-86.94v0c0,-48.01564 38.92436,-86.94 86.94,-86.94v0c48.01564,0 86.94,38.92436 86.94,86.94v0c0,48.01564 -38.92436,86.94 -86.94,86.94z" fill="none" stroke="none" stroke-width="1" stroke-linejoin="miter"/><path d="M126,207.9c-45.23212,0 -81.9,-36.66788 -81.9,-81.9v0c0,-45.23212 36.66788,-81.9 81.9,-81.9h0c45.23212,0 81.9,36.66788 81.9,81.9v0c0,45.23212 -36.66788,81.9 -81.9,81.9z" fill="none" stroke="none" stroke-width="1" stroke-linejoin="miter"/><path d="M126,211.68c-47.31976,0 -85.68,-38.36024 -85.68,-85.68v0c0,-47.31976 38.36024,-85.68 85.68,-85.68v0c47.31976,0 85.68,38.36024 85.68,85.68v0c0,47.31976 -38.36024,85.68 -85.68,85.68z" fill="none" stroke="none" stroke-width="1" stroke-linejoin="miter"/><path d="M126,206.64c-44.53624,0 -80.64,-36.10376 -80.64,-80.64v0c0,-44.53624 36.10376,-80.64 80.64,-80.64h0c44.53624,0 80.64,36.10376 80.64,80.64v0c0,44.53624 -36.10376,80.64 -80.64,80.64z" fill="none" stroke="none" stroke-width="1" stroke-linejoin="miter"/><path d="M126,209.16c-45.928,0 -83.16,-37.232 -83.16,-83.16v0c0,-45.928 37.232,-83.16 83.16,-83.16v0c45.928,0 83.16,37.232 83.16,83.16v0c0,45.928 -37.232,83.16 -83.16,83.16z" fill="none" stroke="none" stroke-width="1" stroke-linejoin="miter"/><path d="M126,204.12c-43.14448,0 -78.12,-34.97552 -78.12,-78.12v0c0,-43.14448 34.97552,-78.12 78.12,-78.12h0c43.14448,0 78.12,34.97552 78.12,78.12v0c0,43.14448 -34.97552,78.12 -78.12,78.12z" fill="none" stroke="none" stroke-width="1" stroke-linejoin="miter"/><path d="M126,207.9c-45.23212,0 -81.9,-36.66788 -81.9,-81.9v0c0,-45.23212 36.66788,-81.9 81.9,-81.9v0c45.23212,0 81.9,36.66788 81.9,81.9v0c0,45.23212 -36.66788,81.9 -81.9,81.9z" fill="none" stroke="none" stroke-width="1" stroke-linejoin="miter"/><path d="M126,202.86c-42.44861,0 -76.86,-34.41139 -76.86,-76.86v0c0,-42.44861 34.41139,-76.86 76.86,-76.86h0c42.44861,0 76.86,34.41139 76.86,76.86v0c0,42.44861 -34.41139,76.86 -76.86,76.86z" fill="none" stroke="none" stroke-width="1" stroke-linejoin="miter"/><path d="M126,206.64c-44.53624,0 -80.64,-36.10376 -80.64,-80.64v0c0,-44.53624 36.10376,-80.64 80.64,-80.64h0c44.53624,0 80.64,36.10376 80.64,80.64v0c0,44.53624 -36.10376,80.64 -80.64,80.64z" fill="none" stroke="none" stroke-width="1" stroke-linejoin="miter"/><path d="M126,201.6c-41.75273,0 -75.6,-33.84727 -75.6,-75.6v0c0,-41.75273 33.84727,-75.6 75.6,-75.6v0c41.75273,0 75.6,33.84727 75.6,75.6v0c0,41.75273 -33.84727,75.6 -75.6,75.6z" fill="none" stroke="none" stroke-width="1" stroke-linejoin="miter"/><path d="M126,205.38c-43.84036,0 -79.38,-35.53964 -79.38,-79.38v0c0,-43.84036 35.53964,-79.38 79.38,-79.38v0c43.84036,0 79.38,35.53964 79.38,79.38v0c0,43.84036 -35.53964,79.38 -79.38,79.38z" fill="none" stroke="none" stroke-width="1" stroke-linejoin="miter"/><path d="M126,200.34c-41.05685,0 -74.34,-33.28315 -74.34,-74.34v0c0,-41.05685 33.28315,-74.34 74.34,-74.34h0c41.05685,0 74.34,33.28315 74.34,74.34v0c0,41.05685 -33.28315,74.34 -74.34,74.34z" fill="none" stroke="none" stroke-width="1" stroke-linejoin="miter"/><path d="M126,204.12c-43.14448,0 -78.12,-34.97552 -78.12,-78.12v0c0,-43.14448 34.97552,-78.12 78.12,-78.12v0c43.14448,0 78.12,34.97552 78.12,78.12v0c0,43.14448 -34.97552,78.12 -78.12,78.12z" fill="none" stroke="none" stroke-width="1" stroke-linejoin="miter"/><path d="M126,199.08c-40.36097,0 -73.08,-32.71903 -73.08,-73.08v0c0,-40.36097 32.71903,-73.08 73.08,-73.08h0c40.36097,0 73.08,32.71903 73.08,73.08v0c0,40.36097 -32.71903,73.08 -73.08,73.08z" fill="none" stroke="none" stroke-width="1" stroke-linejoin="miter"/><path d="M126,202.86c-42.44861,0 -76.86,-34.41139 -76.86,-76.86v0c0,-42.44861 34.41139,-76.86 76.86,-76.86h0c42.44861,0 76.86,34.41139 76.86,76.86v0c0,42.44861 -34.41139,76.86 -76.86,76.86z" fill="none" stroke="none" stroke-width="1" stroke-linejoin="miter"/><path d="M126,197.82c-39.66509,0 -71.82,-32.15491 -71.82,-71.82v0c0,-39.66509 32.15491,-71.82 71.82,-71.82v0c39.66509,0 71.82,32.15491 71.82,71.82v0c0,39.66509 -32.15491,71.82 -71.82,71.82z" fill="none" stroke="none" stroke-width="1" stroke-linejoin="miter"/><path d="M126,201.6c-41.75273,0 -75.6,-33.84727 -75.6,-75.6v0c0,-41.75273 33.84727,-75.6 75.6,-75.6v0c41.75273,0 75.6,33.84727 75.6,75.6v0c0,41.75273 -33.84727,75.6 -75.6,75.6z" fill="none" stroke="none" stroke-width="1" stroke-linejoin="miter"/><path d="M126,196.56c-38.96921,0 -70.56,-31.59079 -70.56,-70.56v0c0,-38.96921 31.59079,-70.56 70.56,-70.56h0c38.96921,0 70.56,31.59079 70.56,70.56v0c0,38.96921 -31.59079,70.56 -70.56,70.56z" fill="none" stroke="none" stroke-width="1" stroke-linejoin="miter"/><path d="M126,200.34c-41.05685,0 -74.34,-33.28315 -74.34,-74.34v0c0,-41.05685 33.28315,-74.34 74.34,-74.34v0c41.05685,0 74.34,33.28315 74.34,74.34v0c0,41.05685 -33.28315,74.34 -74.34,74.34z" fill="none" stroke="none" stroke-width="1" stroke-linejoin="miter"/><path d="M126,195.3c-38.27333,0 -69.3,-31.02667 -69.3,-69.3v0c0,-38.27333 31.02667,-69.3 69.3,-69.3h0c38.27333,0 69.3,31.02667 69.3,69.3v0c0,38.27333 -31.02667,69.3 -69.3,69.3z" fill="none" stroke="none" stroke-width="1" stroke-linejoin="miter"/><path d="M126,199.08c-40.36097,0 -73.08,-32.71903 -73.08,-73.08v0c0,-40.36097 32.71903,-73.08 73.08,-73.08h0c40.36097,0 73.08,32.71903 73.08,73.08v0c0,40.36097 -32.71903,73.08 -73.08,73.08z" fill="none" stroke="none" stroke-width="1" stroke-linejoin="miter"/><path d="M126,194.04c-37.57745,0 -68.04,-30.46255 -68.04,-68.04v0c0,-37.57745 30.46255,-68.04 68.04,-68.04v0c37.57745,0 68.04,30.46255 68.04,68.04v0c0,37.57745 -30.46255,68.04 -68.04,68.04z" fill="none" stroke="none" stroke-width="1" stroke-linejoin="miter"/><path d="M126,197.82c-39.66509,0 -71.82,-32.15491 -71.82,-71.82v0c0,-39.66509 32.15491,-71.82 71.82,-71.82v0c39.66509,0 71.82,32.15491 71.82,71.82v0c0,39.66509 -32.15491,71.82 -71.82,71.82z" fill="none" stroke="none" stroke-width="1" stroke-linejoin="miter"/><path d="M126,192.78c-36.88158,0 -66.78,-29.89842 -66.78,-66.78v0c0,-36.88158 29.89842,-66.78 66.78,-66.78h0c36.88158,0 66.78,29.89842 66.78,66.78v0c0,36.88158 -29.89842,66.78 -66.78,66.78z" fill="none" stroke="none" stroke-width="1" stroke-linejoin="miter"/><path d="M126,196.56c-38.96921,0 -70.56,-31.59079 -70.56,-70.56v0c0,-38.96921 31.59079,-70.56 70.56,-70.56v0c38.96921,0 70.56,31.59079 70.56,70.56v0c0,38.96921 -31.59079,70.56 -70.56,70.56z" fill="none" stroke="none" stroke-width="1" stroke-linejoin="miter"/><path d="M126,191.52c-36.1857,0 -65.52,-29.3343 -65.52,-65.52v0c0,-36.1857 29.3343,-65.52 65.52,-65.52h0c36.1857,0 65.52,29.3343 65.52,65.52v0c0,36.1857 -29.3343,65.52 -65.52,65.52z" fill="none" stroke="none" stroke-width="1" stroke-linejoin="miter"/><path d="M126,195.3c-38.27333,0 -69.3,-31.02667 -69.3,-69.3v0c0,-38.27333 31.02667,-69.3 69.3,-69.3h0c38.27333,0 69.3,31.02667 69.3,69.3v0c0,38.27333 -31.02667,69.3 -69.3,69.3z" fill="none" stroke="none" stroke-width="1" stroke-linejoin="miter"/><path d="M126,190.26c-35.48982,0 -64.26,-28.77018 -64.26,-64.26v0c0,-35.48982 28.77018,-64.26 64.26,-64.26v0c35.48982,0 64.26,28.77018 64.26,64.26v0c0,35.48982 -28.77018,64.26 -64.26,64.26z" fill="none" stroke="none" stroke-width="1" stroke-linejoin="miter"/><path d="M126,194.04c-37.57745,0 -68.04,-30.46255 -68.04,-68.04v0c0,-37.57745 30.46255,-68.04 68.04,-68.04h0c37.57745,0 68.04,30.46255 68.04,68.04v0c0,37.57745 -30.46255,68.04 -68.04,68.04z" fill="none" stroke="none" stroke-width="1" stroke-linejoin="miter"/><path d="M126,189c-34.79394,0 -63,-28.20606 -63,-63v0c0,-34.79394 28.20606,-63 63,-63v0c34.79394,0 63,28.20606 63,63v0c0,34.79394 -28.20606,63 -63,63z" fill="none" stroke="none" stroke-width="1" stroke-linejoin="miter"/><path d="M126,192.78c-36.88158,0 -66.78,-29.89842 -66.78,-66.78v0c0,-36.88158 29.89842,-66.78 66.78,-66.78v0c36.88158,0 66.78,29.89842 66.78,66.78v0c0,36.88158 -29.89842,66.78 -66.78,66.78z" fill="none" stroke="none" stroke-width="1" stroke-linejoin="miter"/><path d="M126,187.74c-34.09806,0 -61.74,-27.64194 -61.74,-61.74v0c0,-34.09806 27.64194,-61.74 61.74,-61.74v0c34.09806,0 61.74,27.64194 61.74,61.74v0c0,34.09806 -27.64194,61.74 -61.74,61.74z" fill="none" stroke="none" stroke-width="1" stroke-linejoin="miter"/><path d="M126,191.52c-36.1857,0 -65.52,-29.3343 -65.52,-65.52v0c0,-36.1857 29.3343,-65.52 65.52,-65.52h0c36.1857,0 65.52,29.3343 65.52,65.52v0c0,36.1857 -29.3343,65.52 -65.52,65.52z" fill="none" stroke="none" stroke-width="1" stroke-linejoin="miter"/><path d="M126,186.48c-33.40218,0 -60.48,-27.07782 -60.48,-60.48v0c0,-33.40218 27.07782,-60.48 60.48,-60.48h0c33.40218,0 60.48,27.07782 60.48,60.48v0c0,33.40218 -27.07782,60.48 -60.48,60.48z" fill="none" stroke="none" stroke-width="1" stroke-linejoin="miter"/><path d="M126,190.26c-35.48982,0 -64.26,-28.77018 -64.26,-64.26v0c0,-35.48982 28.77018,-64.26 64.26,-64.26h0c35.48982,0 64.26,28.77018 64.26,64.26v0c0,35.48982 -28.77018,64.26 -64.26,64.26z" fill="none" stroke="none" stroke-width="1" stroke-linejoin="miter"/><path d="M126,185.22c-32.7063,0 -59.22,-26.5137 -59.22,-59.22v0c0,-32.7063 26.5137,-59.22 59.22,-59.22h0c32.7063,0 59.22,26.5137 59.22,59.22v0c0,32.7063 -26.5137,59.22 -59.22,59.22z" fill="none" stroke="none" stroke-width="1" stroke-linejoin="miter"/><path d="M126,189c-34.79394,0 -63,-28.20606 -63,-63v0c0,-34.79394 28.20606,-63 63,-63v0c34.79394,0 63,28.20606 63,63v0c0,34.79394 -28.20606,63 -63,63z" fill="none" stroke="none" stroke-width="1" stroke-linejoin="miter"/><path d="M126,183.96c-32.01042,0 -57.96,-25.94958 -57.96,-57.96v0c0,-32.01042 25.94958,-57.96 57.96,-57.96h0c32.01042,0 57.96,25.94958 57.96,57.96v0c0,32.01042 -25.94958,57.96 -57.96,57.96z" fill="none" stroke="none" stroke-width="1" stroke-linejoin="miter"/><path d="M126,187.74c-34.09806,0 -61.74,-27.64194 -61.74,-61.74v0c0,-34.09806 27.64194,-61.74 61.74,-61.74v0c34.09806,0 61.74,27.64194 61.74,61.74v0c0,34.09806 -27.64194,61.74 -61.74,61.74z" fill="none" stroke="none" stroke-width="1" stroke-linejoin="miter"/><path d="M126,182.7c-31.31455,0 -56.7,-25.38545 -56.7,-56.7v0c0,-31.31455 25.38545,-56.7 56.7,-56.7h0c31.31455,0 56.7,25.38545 56.7,56.7v0c0,31.31455 -25.38545,56.7 -56.7,56.7z" fill="none" stroke="none" stroke-width="1" stroke-linejoin="miter"/><path d="M126,186.48c-33.40218,0 -60.48,-27.07782 -60.48,-60.48v0c0,-33.40218 27.07782,-60.48 60.48,-60.48h0c33.40218,0 60.48,27.07782 60.48,60.48v0c0,33.40218 -27.07782,60.48 -60.48,60.48z" fill="none" stroke="none" stroke-width="1" stroke-linejoin="miter"/><path d="M126,181.44c-30.61867,0 -55.44,-24.82133 -55.44,-55.44v0c0,-30.61867 24.82133,-55.44 55.44,-55.44v0c30.61867,0 55.44,24.82133 55.44,55.44v0c0,30.61867 -24.82133,55.44 -55.44,55.44z" fill="none" stroke="none" stroke-width="1" stroke-linejoin="miter"/><path d="M126,185.22c-32.7063,0 -59.22,-26.5137 -59.22,-59.22v0c0,-32.7063 26.5137,-59.22 59.22,-59.22v0c32.7063,0 59.22,26.5137 59.22,59.22v0c0,32.7063 -26.5137,59.22 -59.22,59.22z" fill="none" stroke="none" stroke-width="1" stroke-linejoin="miter"/><path d="M126,180.18c-29.92279,0 -54.18,-24.25721 -54.18,-54.18v0c0,-29.92279 24.25721,-54.18 54.18,-54.18v0c29.92279,0 54.18,24.25721 54.18,54.18v0c0,29.92279 -24.25721,54.18 -54.18,54.18z" fill="none" stroke="none" stroke-width="1" stroke-linejoin="miter"/><path d="M126,183.96c-32.01042,0 -57.96,-25.94958 -57.96,-57.96v0c0,-32.01042 25.94958,-57.96 57.96,-57.96h0c32.01042,0 57.96,25.94958 57.96,57.96v0c0,32.01042 -25.94958,57.96 -57.96,57.96z" fill="none" stroke="none" stroke-width="1" stroke-linejoin="miter"/><path d="M126,178.92c-29.22691,0 -52.92,-23.69309 -52.92,-52.92v0c0,-29.22691 23.69309,-52.92 52.92,-52.92h0c29.22691,0 52.92,23.69309 52.92,52.92v0c0,29.22691 -23.69309,52.92 -52.92,52.92z" fill="none" stroke="none" stroke-width="1" stroke-linejoin="miter"/><path d="M126,183.96c-32.01042,0 -57.96,-25.94958 -57.96,-57.96v0c0,-32.01042 25.94958,-57.96 57.96,-57.96h0c32.01042,0 57.96,25.94958 57.96,57.96v0c0,32.01042 -25.94958,57.96 -57.96,57.96z" fill="none" stroke="none" stroke-width="1" stroke-linejoin="miter"/><path d="M126,178.92c-29.22691,0 -52.92,-23.69309 -52.92,-52.92v0c0,-29.22691 23.69309,-52.92 52.92,-52.92h0c29.22691,0 52.92,23.69309 52.92,52.92v0c0,29.22691 -23.69309,52.92 -52.92,52.92z" fill="none" stroke="none" stroke-width="1" stroke-linejoin="miter"/><path d="M126,183.96c-32.01042,0 -57.96,-25.94958 -57.96,-57.96v0c0,-32.01042 25.94958,-57.96 57.96,-57.96h0c32.01042,0 57.96,25.94958 57.96,57.96v0c0,32.01042 -25.94958,57.96 -57.96,57.96z" fill="none" stroke="none" stroke-width="1" stroke-linejoin="miter"/><path d="M126,178.92c-29.22691,0 -52.92,-23.69309 -52.92,-52.92v0c0,-29.22691 23.69309,-52.92 52.92,-52.92h0c29.22691,0 52.92,23.69309 52.92,52.92v0c0,29.22691 -23.69309,52.92 -52.92,52.92z" fill="none" stroke="none" stroke-width="1" stroke-linejoin="miter"/><path d="M126,183.96c-32.01042,0 -57.96,-25.94958 -57.96,-57.96v0c0,-32.01042 25.94958,-57.96 57.96,-57.96h0c32.01042,0 57.96,25.94958 57.96,57.96v0c0,32.01042 -25.94958,57.96 -57.96,57.96z" fill="none" stroke="none" stroke-width="1" stroke-linejoin="miter"/><path d="M126,178.92c-29.22691,0 -52.92,-23.69309 -52.92,-52.92v0c0,-29.22691 23.69309,-52.92 52.92,-52.92h0c29.22691,0 52.92,23.69309 52.92,52.92v0c0,29.22691 -23.69309,52.92 -52.92,52.92z" fill="none" stroke="none" stroke-width="1" stroke-linejoin="miter"/><path d="M126,183.96c-32.01042,0 -57.96,-25.94958 -57.96,-57.96v0c0,-32.01042 25.94958,-57.96 57.96,-57.96h0c32.01042,0 57.96,25.94958 57.96,57.96v0c0,32.01042 -25.94958,57.96 -57.96,57.96z" fill="none" stroke="none" stroke-width="1" stroke-linejoin="miter"/><path d="M126,178.92c-29.22691,0 -52.92,-23.69309 -52.92,-52.92v0c0,-29.22691 23.69309,-52.92 52.92,-52.92h0c29.22691,0 52.92,23.69309 52.92,52.92v0c0,29.22691 -23.69309,52.92 -52.92,52.92z" fill="none" stroke="none" stroke-width="1" stroke-linejoin="miter"/><path d="M126,183.96c-32.01042,0 -57.96,-25.94958 -57.96,-57.96v0c0,-32.01042 25.94958,-57.96 57.96,-57.96h0c32.01042,0 57.96,25.94958 57.96,57.96v0c0,32.01042 -25.94958,57.96 -57.96,57.96z" fill="none" stroke="none" stroke-width="1" stroke-linejoin="miter"/><path d="M126,178.92c-29.22691,0 -52.92,-23.69309 -52.92,-52.92v0c0,-29.22691 23.69309,-52.92 52.92,-52.92h0c29.22691,0 52.92,23.69309 52.92,52.92v0c0,29.22691 -23.69309,52.92 -52.92,52.92z" fill="none" stroke="none" stroke-width="1" stroke-linejoin="miter"/><path d="M126,183.96c-32.01042,0 -57.96,-25.94958 -57.96,-57.96v0c0,-32.01042 25.94958,-57.96 57.96,-57.96h0c32.01042,0 57.96,25.94958 57.96,57.96v0c0,32.01042 -25.94958,57.96 -57.96,57.96z" fill="none" stroke="none" stroke-width="1" stroke-linejoin="miter"/><path d="M126,178.92c-29.22691,0 -52.92,-23.69309 -52.92,-52.92v0c0,-29.22691 23.69309,-52.92 52.92,-52.92h0c29.22691,0 52.92,23.69309 52.92,52.92v0c0,29.22691 -23.69309,52.92 -52.92,52.92z" fill="none" stroke="none" stroke-width="1" stroke-linejoin="miter"/><path d="M126,183.96c-32.01042,0 -57.96,-25.94958 -57.96,-57.96v0c0,-32.01042 25.94958,-57.96 57.96,-57.96h0c32.01042,0 57.96,25.94958 57.96,57.96v0c0,32.01042 -25.94958,57.96 -57.96,57.96z" fill="none" stroke="none" stroke-width="1" stroke-linejoin="miter"/><path d="M126,178.92c-29.22691,0 -52.92,-23.69309 -52.92,-52.92v0c0,-29.22691 23.69309,-52.92 52.92,-52.92h0c29.22691,0 52.92,23.69309 52.92,52.92v0c0,29.22691 -23.69309,52.92 -52.92,52.92z" fill="none" stroke="none" stroke-width="1" stroke-linejoin="miter"/><path d="M126,183.96c-32.01042,0 -57.96,-25.94958 -57.96,-57.96v0c0,-32.01042 25.94958,-57.96 57.96,-57.96h0c32.01042,0 57.96,25.94958 57.96,57.96v0c0,32.01042 -25.94958,57.96 -57.96,57.96z" fill="none" stroke="none" stroke-width="1" stroke-linejoin="miter"/><path d="M126,178.92c-29.22691,0 -52.92,-23.69309 -52.92,-52.92v0c0,-29.22691 23.69309,-52.92 52.92,-52.92h0c29.22691,0 52.92,23.69309 52.92,52.92v0c0,29.22691 -23.69309,52.92 -52.92,52.92z" fill="none" stroke="none" stroke-width="1" stroke-linejoin="miter"/><path d="M126,183.96c-32.01042,0 -57.96,-25.94958 -57.96,-57.96v0c0,-32.01042 25.94958,-57.96 57.96,-57.96h0c32.01042,0 57.96,25.94958 57.96,57.96v0c0,32.01042 -25.94958,57.96 -57.96,57.96z" fill="none" stroke="none" stroke-width="1" stroke-linejoin="miter"/><path d="M126,178.92c-29.22691,0 -52.92,-23.69309 -52.92,-52.92v0c0,-29.22691 23.69309,-52.92 52.92,-52.92h0c29.22691,0 52.92,23.69309 52.92,52.92v0c0,29.22691 -23.69309,52.92 -52.92,52.92z" fill="none" stroke="none" stroke-width="1" stroke-linejoin="miter"/><path d="M126,183.96c-32.01042,0 -57.96,-25.94958 -57.96,-57.96v0c0,-32.01042 25.94958,-57.96 57.96,-57.96h0c32.01042,0 57.96,25.94958 57.96,57.96v0c0,32.01042 -25.94958,57.96 -57.96,57.96z" fill="none" stroke="none" stroke-width="1" stroke-linejoin="miter"/><path d="M126,178.92c-29.22691,0 -52.92,-23.69309 -52.92,-52.92v0c0,-29.22691 23.69309,-52.92 52.92,-52.92h0c29.22691,0 52.92,23.69309 52.92,52.92v0c0,29.22691 -23.69309,52.92 -52.92,52.92z" fill="none" stroke="none" stroke-width="1" stroke-linejoin="miter"/><path d="M126,183.96c-32.01042,0 -57.96,-25.94958 -57.96,-57.96v0c0,-32.01042 25.94958,-57.96 57.96,-57.96h0c32.01042,0 57.96,25.94958 57.96,57.96v0c0,32.01042 -25.94958,57.96 -57.96,57.96z" fill="none" stroke="none" stroke-width="1" stroke-linejoin="miter"/><path d="M126,178.92c-29.22691,0 -52.92,-23.69309 -52.92,-52.92v0c0,-29.22691 23.69309,-52.92 52.92,-52.92h0c29.22691,0 52.92,23.69309 52.92,52.92v0c0,29.22691 -23.69309,52.92 -52.92,52.92z" fill="none" stroke="none" stroke-width="1" stroke-linejoin="miter"/><path d="M126,183.96c-32.01042,0 -57.96,-25.94958 -57.96,-57.96v0c0,-32.01042 25.94958,-57.96 57.96,-57.96h0c32.01042,0 57.96,25.94958 57.96,57.96v0c0,32.01042 -25.94958,57.96 -57.96,57.96z" fill="none" stroke="none" stroke-width="1" stroke-linejoin="miter"/><path d="M126,178.92c-29.22691,0 -52.92,-23.69309 -52.92,-52.92v0c0,-29.22691 23.69309,-52.92 52.92,-52.92h0c29.22691,0 52.92,23.69309 52.92,52.92v0c0,29.22691 -23.69309,52.92 -52.92,52.92z" fill="none" stroke="none" stroke-width="1" stroke-linejoin="miter"/><path d="M126,183.96c-32.01042,0 -57.96,-25.94958 -57.96,-57.96v0c0,-32.01042 25.94958,-57.96 57.96,-57.96h0c32.01042,0 57.96,25.94958 57.96,57.96v0c0,32.01042 -25.94958,57.96 -57.96,57.96z" fill="none" stroke="none" stroke-width="1" stroke-linejoin="miter"/><path d="M126,178.92c-29.22691,0 -52.92,-23.69309 -52.92,-52.92v0c0,-29.22691 23.69309,-52.92 52.92,-52.92h0c29.22691,0 52.92,23.69309 52.92,52.92v0c0,29.22691 -23.69309,52.92 -52.92,52.92z" fill="none" stroke="none" stroke-width="1" stroke-linejoin="miter"/><path d="M126,183.96c-32.01042,0 -57.96,-25.94958 -57.96,-57.96v0c0,-32.01042 25.94958,-57.96 57.96,-57.96h0c32.01042,0 57.96,25.94958 57.96,57.96v0c0,32.01042 -25.94958,57.96 -57.96,57.96z" fill="none" stroke="none" stroke-width="1" stroke-linejoin="miter"/><path d="M126,178.92c-29.22691,0 -52.92,-23.69309 -52.92,-52.92v0c0,-29.22691 23.69309,-52.92 52.92,-52.92h0c29.22691,0 52.92,23.69309 52.92,52.92v0c0,29.22691 -23.69309,52.92 -52.92,52.92z" fill="none" stroke="none" stroke-width="1" stroke-linejoin="miter"/><path d="M126,183.96c-32.01042,0 -57.96,-25.94958 -57.96,-57.96v0c0,-32.01042 25.94958,-57.96 57.96,-57.96h0c32.01042,0 57.96,25.94958 57.96,57.96v0c0,32.01042 -25.94958,57.96 -57.96,57.96z" fill="none" stroke="none" stroke-width="1" stroke-linejoin="miter"/><path d="M126,178.92c-29.22691,0 -52.92,-23.69309 -52.92,-52.92v0c0,-29.22691 23.69309,-52.92 52.92,-52.92h0c29.22691,0 52.92,23.69309 52.92,52.92v0c0,29.22691 -23.69309,52.92 -52.92,52.92z" fill="none" stroke="none" stroke-width="1" stroke-linejoin="miter"/><path d="M126,183.96c-32.01042,0 -57.96,-25.94958 -57.96,-57.96v0c0,-32.01042 25.94958,-57.96 57.96,-57.96h0c32.01042,0 57.96,25.94958 57.96,57.96v0c0,32.01042 -25.94958,57.96 -57.96,57.96z" fill="none" stroke="none" stroke-width="1" stroke-linejoin="miter"/><path d="M126,178.92c-29.22691,0 -52.92,-23.69309 -52.92,-52.92v0c0,-29.22691 23.69309,-52.92 52.92,-52.92h0c29.22691,0 52.92,23.69309 52.92,52.92v0c0,29.22691 -23.69309,52.92 -52.92,52.92z" fill="none" stroke="none" stroke-width="1" stroke-linejoin="miter"/><path d="M126,183.96c-32.01042,0 -57.96,-25.94958 -57.96,-57.96v0c0,-32.01042 25.94958,-57.96 57.96,-57.96h0c32.01042,0 57.96,25.94958 57.96,57.96v0c0,32.01042 -25.94958,57.96 -57.96,57.96z" fill="none" stroke="none" stroke-width="1" stroke-linejoin="miter"/><path d="M126,178.92c-29.22691,0 -52.92,-23.69309 -52.92,-52.92v0c0,-29.22691 23.69309,-52.92 52.92,-52.92h0c29.22691,0 52.92,23.69309 52.92,52.92v0c0,29.22691 -23.69309,52.92 -52.92,52.92z" fill="none" stroke="none" stroke-width="1" stroke-linejoin="miter"/><path d="M126,183.96c-32.01042,0 -57.96,-25.94958 -57.96,-57.96v0c0,-32.01042 25.94958,-57.96 57.96,-57.96h0c32.01042,0 57.96,25.94958 57.96,57.96v0c0,32.01042 -25.94958,57.96 -57.96,57.96z" fill="none" stroke="none" stroke-width="1" stroke-linejoin="miter"/><path d="M126,178.92c-29.22691,0 -52.92,-23.69309 -52.92,-52.92v0c0,-29.22691 23.69309,-52.92 52.92,-52.92h0c29.22691,0 52.92,23.69309 52.92,52.92v0c0,29.22691 -23.69309,52.92 -52.92,52.92z" fill="none" stroke="none" stroke-width="1" stroke-linejoin="miter"/><path d="M126,183.96c-32.01042,0 -57.96,-25.94958 -57.96,-57.96v0c0,-32.01042 25.94958,-57.96 57.96,-57.96h0c32.01042,0 57.96,25.94958 57.96,57.96v0c0,32.01042 -25.94958,57.96 -57.96,57.96z" fill="none" stroke="none" stroke-width="1" stroke-linejoin="miter"/><path d="M126,178.92c-29.22691,0 -52.92,-23.69309 -52.92,-52.92v0c0,-29.22691 23.69309,-52.92 52.92,-52.92h0c29.22691,0 52.92,23.69309 52.92,52.92v0c0,29.22691 -23.69309,52.92 -52.92,52.92z" fill="none" stroke="none" stroke-width="1" stroke-linejoin="miter"/><path d="M126,183.96c-32.01042,0 -57.96,-25.94958 -57.96,-57.96v0c0,-32.01042 25.94958,-57.96 57.96,-57.96h0c32.01042,0 57.96,25.94958 57.96,57.96v0c0,32.01042 -25.94958,57.96 -57.96,57.96z" fill="none" stroke="none" stroke-width="1" stroke-linejoin="miter"/><path d="M126,178.92c-29.22691,0 -52.92,-23.69309 -52.92,-52.92v0c0,-29.22691 23.69309,-52.92 52.92,-52.92h0c29.22691,0 52.92,23.69309 52.92,52.92v0c0,29.22691 -23.69309,52.92 -52.92,52.92z" fill="none" stroke="none" stroke-width="1" stroke-linejoin="miter"/><path d="M126,183.96c-32.01042,0 -57.96,-25.94958 -57.96,-57.96v0c0,-32.01042 25.94958,-57.96 57.96,-57.96h0c32.01042,0 57.96,25.94958 57.96,57.96v0c0,32.01042 -25.94958,57.96 -57.96,57.96z" fill="none" stroke="none" stroke-width="1" stroke-linejoin="miter"/><path d="M126,178.92c-29.22691,0 -52.92,-23.69309 -52.92,-52.92v0c0,-29.22691 23.69309,-52.92 52.92,-52.92h0c29.22691,0 52.92,23.69309 52.92,52.92v0c0,29.22691 -23.69309,52.92 -52.92,52.92z" fill="none" stroke="none" stroke-width="1" stroke-linejoin="miter"/><path d="M126,183.96c-32.01042,0 -57.96,-25.94958 -57.96,-57.96v0c0,-32.01042 25.94958,-57.96 57.96,-57.96h0c32.01042,0 57.96,25.94958 57.96,57.96v0c0,32.01042 -25.94958,57.96 -57.96,57.96z" fill="none" stroke="none" stroke-width="1" stroke-linejoin="miter"/><path d="M126,178.92c-29.22691,0 -52.92,-23.69309 -52.92,-52.92v0c0,-29.22691 23.69309,-52.92 52.92,-52.92h0c29.22691,0 52.92,23.69309 52.92,52.92v0c0,29.22691 -23.69309,52.92 -52.92,52.92z" fill="none" stroke="none" stroke-width="1" stroke-linejoin="miter"/><path d="M126,183.96c-32.01042,0 -57.96,-25.94958 -57.96,-57.96v0c0,-32.01042 25.94958,-57.96 57.96,-57.96h0c32.01042,0 57.96,25.94958 57.96,57.96v0c0,32.01042 -25.94958,57.96 -57.96,57.96z" fill="none" stroke="none" stroke-width="1" stroke-linejoin="miter"/><path d="M126,178.92c-29.22691,0 -52.92,-23.69309 -52.92,-52.92v0c0,-29.22691 23.69309,-52.92 52.92,-52.92h0c29.22691,0 52.92,23.69309 52.92,52.92v0c0,29.22691 -23.69309,52.92 -52.92,52.92z" fill="none" stroke="none" stroke-width="1" stroke-linejoin="miter"/><path d="M126,183.96c-32.01042,0 -57.96,-25.94958 -57.96,-57.96v0c0,-32.01042 25.94958,-57.96 57.96,-57.96h0c32.01042,0 57.96,25.94958 57.96,57.96v0c0,32.01042 -25.94958,57.96 -57.96,57.96z" fill="none" stroke="none" stroke-width="1" stroke-linejoin="miter"/><path d="M126,178.92c-29.22691,0 -52.92,-23.69309 -52.92,-52.92v0c0,-29.22691 23.69309,-52.92 52.92,-52.92h0c29.22691,0 52.92,23.69309 52.92,52.92v0c0,29.22691 -23.69309,52.92 -52.92,52.92z" fill="none" stroke="none" stroke-width="1" stroke-linejoin="miter"/><path d="M126,183.96c-32.01042,0 -57.96,-25.94958 -57.96,-57.96v0c0,-32.01042 25.94958,-57.96 57.96,-57.96h0c32.01042,0 57.96,25.94958 57.96,57.96v0c0,32.01042 -25.94958,57.96 -57.96,57.96z" fill="none" stroke="none" stroke-width="1" stroke-linejoin="miter"/><path d="M126,178.92c-29.22691,0 -52.92,-23.69309 -52.92,-52.92v0c0,-29.22691 23.69309,-52.92 52.92,-52.92h0c29.22691,0 52.92,23.69309 52.92,52.92v0c0,29.22691 -23.69309,52.92 -52.92,52.92z" fill="none" stroke="none" stroke-width="1" stroke-linejoin="miter"/><path d="M126,183.96c-32.01042,0 -57.96,-25.94958 -57.96,-57.96v0c0,-32.01042 25.94958,-57.96 57.96,-57.96h0c32.01042,0 57.96,25.94958 57.96,57.96v0c0,32.01042 -25.94958,57.96 -57.96,57.96z" fill="none" stroke="none" stroke-width="1" stroke-linejoin="miter"/><path d="M126,178.92c-29.22691,0 -52.92,-23.69309 -52.92,-52.92v0c0,-29.22691 23.69309,-52.92 52.92,-52.92h0c29.22691,0 52.92,23.69309 52.92,52.92v0c0,29.22691 -23.69309,52.92 -52.92,52.92z" fill="none" stroke="none" stroke-width="1" stroke-linejoin="miter"/><path d="M126,183.96c-32.01042,0 -57.96,-25.94958 -57.96,-57.96v0c0,-32.01042 25.94958,-57.96 57.96,-57.96h0c32.01042,0 57.96,25.94958 57.96,57.96v0c0,32.01042 -25.94958,57.96 -57.96,57.96z" fill="none" stroke="none" stroke-width="1" stroke-linejoin="miter"/><path d="M126,178.92c-29.22691,0 -52.92,-23.69309 -52.92,-52.92v0c0,-29.22691 23.69309,-52.92 52.92,-52.92h0c29.22691,0 52.92,23.69309 52.92,52.92v0c0,29.22691 -23.69309,52.92 -52.92,52.92z" fill="none" stroke="none" stroke-width="1" stroke-linejoin="miter"/><path d="M126,183.96c-32.01042,0 -57.96,-25.94958 -57.96,-57.96v0c0,-32.01042 25.94958,-57.96 57.96,-57.96h0c32.01042,0 57.96,25.94958 57.96,57.96v0c0,32.01042 -25.94958,57.96 -57.96,57.96z" fill="none" stroke="none" stroke-width="1" stroke-linejoin="miter"/><path d="M126,178.92c-29.22691,0 -52.92,-23.69309 -52.92,-52.92v0c0,-29.22691 23.69309,-52.92 52.92,-52.92h0c29.22691,0 52.92,23.69309 52.92,52.92v0c0,29.22691 -23.69309,52.92 -52.92,52.92z" fill="none" stroke="none" stroke-width="1" stroke-linejoin="miter"/><path d="M126,183.96c-32.01042,0 -57.96,-25.94958 -57.96,-57.96v0c0,-32.01042 25.94958,-57.96 57.96,-57.96h0c32.01042,0 57.96,25.94958 57.96,57.96v0c0,32.01042 -25.94958,57.96 -57.96,57.96z" fill="none" stroke="none" stroke-width="1" stroke-linejoin="miter"/><path d="M126,178.92c-29.22691,0 -52.92,-23.69309 -52.92,-52.92v0c0,-29.22691 23.69309,-52.92 52.92,-52.92h0c29.22691,0 52.92,23.69309 52.92,52.92v0c0,29.22691 -23.69309,52.92 -52.92,52.92z" fill="none" stroke="none" stroke-width="1" stroke-linejoin="miter"/><path d="M126,183.96c-32.01042,0 -57.96,-25.94958 -57.96,-57.96v0c0,-32.01042 25.94958,-57.96 57.96,-57.96h0c32.01042,0 57.96,25.94958 57.96,57.96v0c0,32.01042 -25.94958,57.96 -57.96,57.96z" fill="none" stroke="none" stroke-width="1" stroke-linejoin="miter"/><path d="M126,178.92c-29.22691,0 -52.92,-23.69309 -52.92,-52.92v0c0,-29.22691 23.69309,-52.92 52.92,-52.92h0c29.22691,0 52.92,23.69309 52.92,52.92v0c0,29.22691 -23.69309,52.92 -52.92,52.92z" fill="none" stroke="none" stroke-width="1" stroke-linejoin="miter"/><path d="M126,183.96c-32.01042,0 -57.96,-25.94958 -57.96,-57.96v0c0,-32.01042 25.94958,-57.96 57.96,-57.96h0c32.01042,0 57.96,25.94958 57.96,57.96v0c0,32.01042 -25.94958,57.96 -57.96,57.96z" fill="none" stroke="none" stroke-width="1" stroke-linejoin="miter"/><path d="M126,178.92c-29.22691,0 -52.92,-23.69309 -52.92,-52.92v0c0,-29.22691 23.69309,-52.92 52.92,-52.92h0c29.22691,0 52.92,23.69309 52.92,52.92v0c0,29.22691 -23.69309,52.92 -52.92,52.92z" fill="none" stroke="none" stroke-width="1" stroke-linejoin="miter"/><path d="M126,183.96c-32.01042,0 -57.96,-25.94958 -57.96,-57.96v0c0,-32.01042 25.94958,-57.96 57.96,-57.96h0c32.01042,0 57.96,25.94958 57.96,57.96v0c0,32.01042 -25.94958,57.96 -57.96,57.96z" fill="none" stroke="none" stroke-width="1" stroke-linejoin="miter"/><path d="M126,178.92c-29.22691,0 -52.92,-23.69309 -52.92,-52.92v0c0,-29.22691 23.69309,-52.92 52.92,-52.92h0c29.22691,0 52.92,23.69309 52.92,52.92v0c0,29.22691 -23.69309,52.92 -52.92,52.92z" fill="none" stroke="none" stroke-width="1" stroke-linejoin="miter"/><path d="M126,183.96c-32.01042,0 -57.96,-25.94958 -57.96,-57.96v0c0,-32.01042 25.94958,-57.96 57.96,-57.96h0c32.01042,0 57.96,25.94958 57.96,57.96v0c0,32.01042 -25.94958,57.96 -57.96,57.96z" fill="none" stroke="none" stroke-width="1" stroke-linejoin="miter"/><path d="M126,178.92c-29.22691,0 -52.92,-23.69309 -52.92,-52.92v0c0,-29.22691 23.69309,-52.92 52.92,-52.92h0c29.22691,0 52.92,23.69309 52.92,52.92v0c0,29.22691 -23.69309,52.92 -52.92,52.92z" fill="none" stroke="none" stroke-width="1" stroke-linejoin="miter"/><path d="M126,183.96c-32.01042,0 -57.96,-25.94958 -57.96,-57.96v0c0,-32.01042 25.94958,-57.96 57.96,-57.96h0c32.01042,0 57.96,25.94958 57.96,57.96v0c0,32.01042 -25.94958,57.96 -57.96,57.96z" fill="none" stroke="none" stroke-width="1" stroke-linejoin="miter"/><path d="M126,178.92c-29.22691,0 -52.92,-23.69309 -52.92,-52.92v0c0,-29.22691 23.69309,-52.92 52.92,-52.92h0c29.22691,0 52.92,23.69309 52.92,52.92v0c0,29.22691 -23.69309,52.92 -52.92,52.92z" fill="none" stroke="none" stroke-width="1" stroke-linejoin="miter"/><path d="M126,183.96c-32.01042,0 -57.96,-25.94958 -57.96,-57.96v0c0,-32.01042 25.94958,-57.96 57.96,-57.96h0c32.01042,0 57.96,25.94958 57.96,57.96v0c0,32.01042 -25.94958,57.96 -57.96,57.96z" fill="none" stroke="none" stroke-width="1" stroke-linejoin="miter"/><path d="M126,178.92c-29.22691,0 -52.92,-23.69309 -52.92,-52.92v0c0,-29.22691 23.69309,-52.92 52.92,-52.92h0c29.22691,0 52.92,23.69309 52.92,52.92v0c0,29.22691 -23.69309,52.92 -52.92,52.92z" fill="none" stroke="none" stroke-width="1" stroke-linejoin="miter"/><path d="M126,183.96c-32.01042,0 -57.96,-25.94958 -57.96,-57.96v0c0,-32.01042 25.94958,-57.96 57.96,-57.96h0c32.01042,0 57.96,25.94958 57.96,57.96v0c0,32.01042 -25.94958,57.96 -57.96,57.96z" fill="none" stroke="none" stroke-width="1" stroke-linejoin="miter"/><path d="M126,178.92c-29.22691,0 -52.92,-23.69309 -52.92,-52.92v0c0,-29.22691 23.69309,-52.92 52.92,-52.92h0c29.22691,0 52.92,23.69309 52.92,52.92v0c0,29.22691 -23.69309,52.92 -52.92,52.92z" fill="none" stroke="none" stroke-width="1" stroke-linejoin="miter"/><path d="M126,183.96c-32.01042,0 -57.96,-25.94958 -57.96,-57.96v0c0,-32.01042 25.94958,-57.96 57.96,-57.96h0c32.01042,0 57.96,25.94958 57.96,57.96v0c0,32.01042 -25.94958,57.96 -57.96,57.96z" fill="none" stroke="none" stroke-width="1" stroke-linejoin="miter"/><path d="M126,178.92c-29.22691,0 -52.92,-23.69309 -52.92,-52.92v0c0,-29.22691 23.69309,-52.92 52.92,-52.92h0c29.22691,0 52.92,23.69309 52.92,52.92v0c0,29.22691 -23.69309,52.92 -52.92,52.92z" fill="none" stroke="none" stroke-width="1" stroke-linejoin="miter"/><path d="M126,183.96c-32.01042,0 -57.96,-25.94958 -57.96,-57.96v0c0,-32.01042 25.94958,-57.96 57.96,-57.96h0c32.01042,0 57.96,25.94958 57.96,57.96v0c0,32.01042 -25.94958,57.96 -57.96,57.96z" fill="none" stroke="none" stroke-width="1" stroke-linejoin="miter"/><path d="M126,178.92c-29.22691,0 -52.92,-23.69309 -52.92,-52.92v0c0,-29.22691 23.69309,-52.92 52.92,-52.92h0c29.22691,0 52.92,23.69309 52.92,52.92v0c0,29.22691 -23.69309,52.92 -52.92,52.92z" fill="none" stroke="none" stroke-width="1" stroke-linejoin="miter"/><path d="M126,183.96c-32.01042,0 -57.96,-25.94958 -57.96,-57.96v0c0,-32.01042 25.94958,-57.96 57.96,-57.96h0c32.01042,0 57.96,25.94958 57.96,57.96v0c0,32.01042 -25.94958,57.96 -57.96,57.96z" fill="none" stroke="none" stroke-width="1" stroke-linejoin="miter"/><path d="M126,178.92c-29.22691,0 -52.92,-23.69309 -52.92,-52.92v0c0,-29.22691 23.69309,-52.92 52.92,-52.92h0c29.22691,0 52.92,23.69309 52.92,52.92v0c0,29.22691 -23.69309,52.92 -52.92,52.92z" fill="none" stroke="none" stroke-width="1" stroke-linejoin="miter"/><path d="M126,183.96c-32.01042,0 -57.96,-25.94958 -57.96,-57.96v0c0,-32.01042 25.94958,-57.96 57.96,-57.96h0c32.01042,0 57.96,25.94958 57.96,57.96v0c0,32.01042 -25.94958,57.96 -57.96,57.96z" fill="none" stroke="none" stroke-width="1" stroke-linejoin="miter"/><path d="M126,178.92c-29.22691,0 -52.92,-23.69309 -52.92,-52.92v0c0,-29.22691 23.69309,-52.92 52.92,-52.92h0c29.22691,0 52.92,23.69309 52.92,52.92v0c0,29.22691 -23.69309,52.92 -52.92,52.92z" fill="none" stroke="none" stroke-width="1" stroke-linejoin="miter"/><path d="M126,183.96c-32.01042,0 -57.96,-25.94958 -57.96,-57.96v0c0,-32.01042 25.94958,-57.96 57.96,-57.96h0c32.01042,0 57.96,25.94958 57.96,57.96v0c0,32.01042 -25.94958,57.96 -57.96,57.96z" fill="none" stroke="none" stroke-width="1" stroke-linejoin="miter"/><path d="M126,178.92c-29.22691,0 -52.92,-23.69309 -52.92,-52.92v0c0,-29.22691 23.69309,-52.92 52.92,-52.92h0c29.22691,0 52.92,23.69309 52.92,52.92v0c0,29.22691 -23.69309,52.92 -52.92,52.92z" fill="none" stroke="none" stroke-width="1" stroke-linejoin="miter"/><path d="M126,183.96c-32.01042,0 -57.96,-25.94958 -57.96,-57.96v0c0,-32.01042 25.94958,-57.96 57.96,-57.96h0c32.01042,0 57.96,25.94958 57.96,57.96v0c0,32.01042 -25.94958,57.96 -57.96,57.96z" fill="none" stroke="none" stroke-width="1" stroke-linejoin="miter"/><path d="M126,178.92c-29.22691,0 -52.92,-23.69309 -52.92,-52.92v0c0,-29.22691 23.69309,-52.92 52.92,-52.92h0c29.22691,0 52.92,23.69309 52.92,52.92v0c0,29.22691 -23.69309,52.92 -52.92,52.92z" fill="none" stroke="none" stroke-width="1" stroke-linejoin="miter"/><path d="M126,183.96c-32.01042,0 -57.96,-25.94958 -57.96,-57.96v0c0,-32.01042 25.94958,-57.96 57.96,-57.96h0c32.01042,0 57.96,25.94958 57.96,57.96v0c0,32.01042 -25.94958,57.96 -57.96,57.96z" fill="none" stroke="none" stroke-width="1" stroke-linejoin="miter"/><path d="M126,178.92c-29.22691,0 -52.92,-23.69309 -52.92,-52.92v0c0,-29.22691 23.69309,-52.92 52.92,-52.92h0c29.22691,0 52.92,23.69309 52.92,52.92v0c0,29.22691 -23.69309,52.92 -52.92,52.92z" fill="none" stroke="none" stroke-width="1" stroke-linejoin="miter"/><path d="M126,183.96c-32.01042,0 -57.96,-25.94958 -57.96,-57.96v0c0,-32.01042 25.94958,-57.96 57.96,-57.96h0c32.01042,0 57.96,25.94958 57.96,57.96v0c0,32.01042 -25.94958,57.96 -57.96,57.96z" fill="none" stroke="none" stroke-width="1" stroke-linejoin="miter"/><path d="M126,178.92c-29.22691,0 -52.92,-23.69309 -52.92,-52.92v0c0,-29.22691 23.69309,-52.92 52.92,-52.92h0c29.22691,0 52.92,23.69309 52.92,52.92v0c0,29.22691 -23.69309,52.92 -52.92,52.92z" fill="none" stroke="none" stroke-width="1" stroke-linejoin="miter"/><path d="M126,183.96c-32.01042,0 -57.96,-25.94958 -57.96,-57.96v0c0,-32.01042 25.94958,-57.96 57.96,-57.96h0c32.01042,0 57.96,25.94958 57.96,57.96v0c0,32.01042 -25.94958,57.96 -57.96,57.96z" fill="none" stroke="none" stroke-width="1" stroke-linejoin="miter"/><path d="M126,178.92c-29.22691,0 -52.92,-23.69309 -52.92,-52.92v0c0,-29.22691 23.69309,-52.92 52.92,-52.92h0c29.22691,0 52.92,23.69309 52.92,52.92v0c0,29.22691 -23.69309,52.92 -52.92,52.92z" fill="none" stroke="none" stroke-width="1" stroke-linejoin="miter"/><path d="M126,190.26c-35.48982,0 -64.26,-28.77018 -64.26,-64.26v0c0,-35.48982 28.77018,-64.26 64.26,-64.26h0c35.48982,0 64.26,28.77018 64.26,64.26v0c0,35.48982 -28.77018,64.26 -64.26,64.26z" fill="none" stroke="none" stroke-width="1" stroke-linejoin="miter"/><path d="M126,185.22c-32.7063,0 -59.22,-26.5137 -59.22,-59.22v0c0,-32.7063 26.5137,-59.22 59.22,-59.22h0c32.7063,0 59.22,26.5137 59.22,59.22v0c0,32.7063 -26.5137,59.22 -59.22,59.22z" fill="none" stroke="none" stroke-width="1" stroke-linejoin="miter"/><path d="M126,189c-34.79394,0 -63,-28.20606 -63,-63v0c0,-34.79394 28.20606,-63 63,-63v0c34.79394,0 63,28.20606 63,63v0c0,34.79394 -28.20606,63 -63,63z" fill="none" stroke="none" stroke-width="1" stroke-linejoin="miter"/><path d="M126,183.96c-32.01042,0 -57.96,-25.94958 -57.96,-57.96v0c0,-32.01042 25.94958,-57.96 57.96,-57.96h0c32.01042,0 57.96,25.94958 57.96,57.96v0c0,32.01042 -25.94958,57.96 -57.96,57.96z" fill="none" stroke="none" stroke-width="1" stroke-linejoin="miter"/><path d="M126,186.48c-33.40218,0 -60.48,-27.07782 -60.48,-60.48v0c0,-33.40218 27.07782,-60.48 60.48,-60.48h0c33.40218,0 60.48,27.07782 60.48,60.48v0c0,33.40218 -27.07782,60.48 -60.48,60.48z" fill="none" stroke="none" stroke-width="1" stroke-linejoin="miter"/><path d="M126,181.44c-30.61867,0 -55.44,-24.82133 -55.44,-55.44v0c0,-30.61867 24.82133,-55.44 55.44,-55.44v0c30.61867,0 55.44,24.82133 55.44,55.44v0c0,30.61867 -24.82133,55.44 -55.44,55.44z" fill="none" stroke="none" stroke-width="1" stroke-linejoin="miter"/><path d="M126,185.22c-32.7063,0 -59.22,-26.5137 -59.22,-59.22v0c0,-32.7063 26.5137,-59.22 59.22,-59.22v0c32.7063,0 59.22,26.5137 59.22,59.22v0c0,32.7063 -26.5137,59.22 -59.22,59.22z" fill="none" stroke="none" stroke-width="1" stroke-linejoin="miter"/><path d="M126,180.18c-29.92279,0 -54.18,-24.25721 -54.18,-54.18v0c0,-29.92279 24.25721,-54.18 54.18,-54.18v0c29.92279,0 54.18,24.25721 54.18,54.18v0c0,29.92279 -24.25721,54.18 -54.18,54.18z" fill="none" stroke="none" stroke-width="1" stroke-linejoin="miter"/><path d="M126,183.96c-32.01042,0 -57.96,-25.94958 -57.96,-57.96v0c0,-32.01042 25.94958,-57.96 57.96,-57.96h0c32.01042,0 57.96,25.94958 57.96,57.96v0c0,32.01042 -25.94958,57.96 -57.96,57.96z" fill="none" stroke="none" stroke-width="1" stroke-linejoin="miter"/><path d="M126,178.92c-29.22691,0 -52.92,-23.69309 -52.92,-52.92v0c0,-29.22691 23.69309,-52.92 52.92,-52.92h0c29.22691,0 52.92,23.69309 52.92,52.92v0c0,29.22691 -23.69309,52.92 -52.92,52.92z" fill="none" stroke="none" stroke-width="1" stroke-linejoin="miter"/><path d="M126,178.92c-29.22691,0 -52.92,-23.69309 -52.92,-52.92v0c0,-29.22691 23.69309,-52.92 52.92,-52.92h0c29.22691,0 52.92,23.69309 52.92,52.92v0c0,29.22691 -23.69309,52.92 -52.92,52.92z" fill="none" stroke="none" stroke-width="1" stroke-linejoin="miter"/><path d="M126,173.88c-26.44339,0 -47.88,-21.43661 -47.88,-47.88v0c0,-26.44339 21.43661,-47.88 47.88,-47.88v0c26.44339,0 47.88,21.43661 47.88,47.88v0c0,26.44339 -21.43661,47.88 -47.88,47.88z" fill="none" stroke="none" stroke-width="1" stroke-linejoin="miter"/><path d="M126,186.48c-33.40218,0 -60.48,-27.07782 -60.48,-60.48v0c0,-33.40218 27.07782,-60.48 60.48,-60.48h0c33.40218,0 60.48,27.07782 60.48,60.48v0c0,33.40218 -27.07782,60.48 -60.48,60.48z" fill="none" stroke="none" stroke-width="1" stroke-linejoin="miter"/><path d="M126,181.44c-30.61867,0 -55.44,-24.82133 -55.44,-55.44v0c0,-30.61867 24.82133,-55.44 55.44,-55.44v0c30.61867,0 55.44,24.82133 55.44,55.44v0c0,30.61867 -24.82133,55.44 -55.44,55.44z" fill="none" stroke="none" stroke-width="1" stroke-linejoin="miter"/><path d="M126,187.74c-34.09806,0 -61.74,-27.64194 -61.74,-61.74v0c0,-34.09806 27.64194,-61.74 61.74,-61.74v0c34.09806,0 61.74,27.64194 61.74,61.74v0c0,34.09806 -27.64194,61.74 -61.74,61.74z" fill="none" stroke="none" stroke-width="1" stroke-linejoin="miter"/><path d="M126,182.7c-31.31455,0 -56.7,-25.38545 -56.7,-56.7v0c0,-31.31455 25.38545,-56.7 56.7,-56.7h0c31.31455,0 56.7,25.38545 56.7,56.7v0c0,31.31455 -25.38545,56.7 -56.7,56.7z" fill="none" stroke="none" stroke-width="1" stroke-linejoin="miter"/><path d="M126,190.26c-35.48982,0 -64.26,-28.77018 -64.26,-64.26v0c0,-35.48982 28.77018,-64.26 64.26,-64.26h0c35.48982,0 64.26,28.77018 64.26,64.26v0c0,35.48982 -28.77018,64.26 -64.26,64.26z" fill="none" stroke="none" stroke-width="1" stroke-linejoin="miter"/><path d="M126,185.22c-32.7063,0 -59.22,-26.5137 -59.22,-59.22v0c0,-32.7063 26.5137,-59.22 59.22,-59.22h0c32.7063,0 59.22,26.5137 59.22,59.22v0c0,32.7063 -26.5137,59.22 -59.22,59.22z" fill="none" stroke="none" stroke-width="1" stroke-linejoin="miter"/><path d="M126,191.52c-36.1857,0 -65.52,-29.3343 -65.52,-65.52v0c0,-36.1857 29.3343,-65.52 65.52,-65.52h0c36.1857,0 65.52,29.3343 65.52,65.52v0c0,36.1857 -29.3343,65.52 -65.52,65.52z" fill="none" stroke="none" stroke-width="1" stroke-linejoin="miter"/><path d="M126,186.48c-33.40218,0 -60.48,-27.07782 -60.48,-60.48v0c0,-33.40218 27.07782,-60.48 60.48,-60.48h0c33.40218,0 60.48,27.07782 60.48,60.48v0c0,33.40218 -27.07782,60.48 -60.48,60.48z" fill="none" stroke="none" stroke-width="1" stroke-linejoin="miter"/><path d="M126,192.78c-36.88158,0 -66.78,-29.89842 -66.78,-66.78v0c0,-36.88158 29.89842,-66.78 66.78,-66.78v0c36.88158,0 66.78,29.89842 66.78,66.78v0c0,36.88158 -29.89842,66.78 -66.78,66.78z" fill="none" stroke="none" stroke-width="1" stroke-linejoin="miter"/><path d="M126,187.74c-34.09806,0 -61.74,-27.64194 -61.74,-61.74v0c0,-34.09806 27.64194,-61.74 61.74,-61.74v0c34.09806,0 61.74,27.64194 61.74,61.74v0c0,34.09806 -27.64194,61.74 -61.74,61.74z" fill="none" stroke="none" stroke-width="1" stroke-linejoin="miter"/><path d="M126,194.04c-37.57745,0 -68.04,-30.46255 -68.04,-68.04v0c0,-37.57745 30.46255,-68.04 68.04,-68.04h0c37.57745,0 68.04,30.46255 68.04,68.04v0c0,37.57745 -30.46255,68.04 -68.04,68.04z" fill="none" stroke="none" stroke-width="1" stroke-linejoin="miter"/><path d="M126,189c-34.79394,0 -63,-28.20606 -63,-63v0c0,-34.79394 28.20606,-63 63,-63v0c34.79394,0 63,28.20606 63,63v0c0,34.79394 -28.20606,63 -63,63z" fill="none" stroke="none" stroke-width="1" stroke-linejoin="miter"/><path d="M126,195.3c-38.27333,0 -69.3,-31.02667 -69.3,-69.3v0c0,-38.27333 31.02667,-69.3 69.3,-69.3h0c38.27333,0 69.3,31.02667 69.3,69.3v0c0,38.27333 -31.02667,69.3 -69.3,69.3z" fill="none" stroke="none" stroke-width="1" stroke-linejoin="miter"/><path d="M126,190.26c-35.48982,0 -64.26,-28.77018 -64.26,-64.26v0c0,-35.48982 28.77018,-64.26 64.26,-64.26v0c35.48982,0 64.26,28.77018 64.26,64.26v0c0,35.48982 -28.77018,64.26 -64.26,64.26z" fill="none" stroke="none" stroke-width="1" stroke-linejoin="miter"/><path d="M126,196.56c-38.96921,0 -70.56,-31.59079 -70.56,-70.56v0c0,-38.96921 31.59079,-70.56 70.56,-70.56v0c38.96921,0 70.56,31.59079 70.56,70.56v0c0,38.96921 -31.59079,70.56 -70.56,70.56z" fill="none" stroke="none" stroke-width="1" stroke-linejoin="miter"/><path d="M126,191.52c-36.1857,0 -65.52,-29.3343 -65.52,-65.52v0c0,-36.1857 29.3343,-65.52 65.52,-65.52h0c36.1857,0 65.52,29.3343 65.52,65.52v0c0,36.1857 -29.3343,65.52 -65.52,65.52z" fill="none" stroke="none" stroke-width="1" stroke-linejoin="miter"/><path d="M126,197.82c-39.66509,0 -71.82,-32.15491 -71.82,-71.82v0c0,-39.66509 32.15491,-71.82 71.82,-71.82v0c39.66509,0 71.82,32.15491 71.82,71.82v0c0,39.66509 -32.15491,71.82 -71.82,71.82z" fill="none" stroke="none" stroke-width="1" stroke-linejoin="miter"/><path d="M126,192.78c-36.88158,0 -66.78,-29.89842 -66.78,-66.78v0c0,-36.88158 29.89842,-66.78 66.78,-66.78h0c36.88158,0 66.78,29.89842 66.78,66.78v0c0,36.88158 -29.89842,66.78 -66.78,66.78z" fill="none" stroke="none" stroke-width="1" stroke-linejoin="miter"/><path d="M126,199.08c-40.36097,0 -73.08,-32.71903 -73.08,-73.08v0c0,-40.36097 32.71903,-73.08 73.08,-73.08h0c40.36097,0 73.08,32.71903 73.08,73.08v0c0,40.36097 -32.71903,73.08 -73.08,73.08z" fill="none" stroke="none" stroke-width="1" stroke-linejoin="miter"/><path d="M126,194.04c-37.57745,0 -68.04,-30.46255 -68.04,-68.04v0c0,-37.57745 30.46255,-68.04 68.04,-68.04v0c37.57745,0 68.04,30.46255 68.04,68.04v0c0,37.57745 -30.46255,68.04 -68.04,68.04z" fill="none" stroke="none" stroke-width="1" stroke-linejoin="miter"/><path d="M126,201.6c-41.75273,0 -75.6,-33.84727 -75.6,-75.6v0c0,-41.75273 33.84727,-75.6 75.6,-75.6v0c41.75273,0 75.6,33.84727 75.6,75.6v0c0,41.75273 -33.84727,75.6 -75.6,75.6z" fill="none" stroke="none" stroke-width="1" stroke-linejoin="miter"/><path d="M126,196.56c-38.96921,0 -70.56,-31.59079 -70.56,-70.56v0c0,-38.96921 31.59079,-70.56 70.56,-70.56h0c38.96921,0 70.56,31.59079 70.56,70.56v0c0,38.96921 -31.59079,70.56 -70.56,70.56z" fill="none" stroke="none" stroke-width="1" stroke-linejoin="miter"/><path d="M126,202.86c-42.44861,0 -76.86,-34.41139 -76.86,-76.86v0c0,-42.44861 34.41139,-76.86 76.86,-76.86h0c42.44861,0 76.86,34.41139 76.86,76.86v0c0,42.44861 -34.41139,76.86 -76.86,76.86z" fill="none" stroke="none" stroke-width="1" stroke-linejoin="miter"/><path d="M126,197.82c-39.66509,0 -71.82,-32.15491 -71.82,-71.82v0c0,-39.66509 32.15491,-71.82 71.82,-71.82v0c39.66509,0 71.82,32.15491 71.82,71.82v0c0,39.66509 -32.15491,71.82 -71.82,71.82z" fill="none" stroke="none" stroke-width="1" stroke-linejoin="miter"/><path d="M126,204.12c-43.14448,0 -78.12,-34.97552 -78.12,-78.12v0c0,-43.14448 34.97552,-78.12 78.12,-78.12v0c43.14448,0 78.12,34.97552 78.12,78.12v0c0,43.14448 -34.97552,78.12 -78.12,78.12z" fill="none" stroke="none" stroke-width="1" stroke-linejoin="miter"/><path d="M126,199.08c-40.36097,0 -73.08,-32.71903 -73.08,-73.08v0c0,-40.36097 32.71903,-73.08 73.08,-73.08h0c40.36097,0 73.08,32.71903 73.08,73.08v0c0,40.36097 -32.71903,73.08 -73.08,73.08z" fill="none" stroke="none" stroke-width="1" stroke-linejoin="miter"/><path d="M126,205.38c-43.84036,0 -79.38,-35.53964 -79.38,-79.38v0c0,-43.84036 35.53964,-79.38 79.38,-79.38v0c43.84036,0 79.38,35.53964 79.38,79.38v0c0,43.84036 -35.53964,79.38 -79.38,79.38z" fill="none" stroke="none" stroke-width="1" stroke-linejoin="miter"/><path d="M126,200.34c-41.05685,0 -74.34,-33.28315 -74.34,-74.34v0c0,-41.05685 33.28315,-74.34 74.34,-74.34h0c41.05685,0 74.34,33.28315 74.34,74.34v0c0,41.05685 -33.28315,74.34 -74.34,74.34z" fill="none" stroke="none" stroke-width="1" stroke-linejoin="miter"/><path d="M126,206.64c-44.53624,0 -80.64,-36.10376 -80.64,-80.64v0c0,-44.53624 36.10376,-80.64 80.64,-80.64h0c44.53624,0 80.64,36.10376 80.64,80.64v0c0,44.53624 -36.10376,80.64 -80.64,80.64z" fill="none" stroke="none" stroke-width="1" stroke-linejoin="miter"/><path d="M126,201.6c-41.75273,0 -75.6,-33.84727 -75.6,-75.6v0c0,-41.75273 33.84727,-75.6 75.6,-75.6v0c41.75273,0 75.6,33.84727 75.6,75.6v0c0,41.75273 -33.84727,75.6 -75.6,75.6z" fill="none" stroke="none" stroke-width="1" stroke-linejoin="miter"/><path d="M126,207.9c-45.23212,0 -81.9,-36.66788 -81.9,-81.9v0c0,-45.23212 36.66788,-81.9 81.9,-81.9v0c45.23212,0 81.9,36.66788 81.9,81.9v0c0,45.23212 -36.66788,81.9 -81.9,81.9z" fill="none" stroke="none" stroke-width="1" stroke-linejoin="miter"/><path d="M126,202.86c-42.44861,0 -76.86,-34.41139 -76.86,-76.86v0c0,-42.44861 34.41139,-76.86 76.86,-76.86h0c42.44861,0 76.86,34.41139 76.86,76.86v0c0,42.44861 -34.41139,76.86 -76.86,76.86z" fill="none" stroke="none" stroke-width="1" stroke-linejoin="miter"/><path d="M126,209.16c-45.928,0 -83.16,-37.232 -83.16,-83.16v0c0,-45.928 37.232,-83.16 83.16,-83.16v0c45.928,0 83.16,37.232 83.16,83.16v0c0,45.928 -37.232,83.16 -83.16,83.16z" fill="none" stroke="none" stroke-width="1" stroke-linejoin="miter"/><path d="M126,204.12c-43.14448,0 -78.12,-34.97552 -78.12,-78.12v0c0,-43.14448 34.97552,-78.12 78.12,-78.12h0c43.14448,0 78.12,34.97552 78.12,78.12v0c0,43.14448 -34.97552,78.12 -78.12,78.12z" fill="none" stroke="none" stroke-width="1" stroke-linejoin="miter"/><path d="M126,210.42c-46.62388,0 -84.42,-37.79612 -84.42,-84.42v0c0,-46.62388 37.79612,-84.42 84.42,-84.42h0c46.62388,0 84.42,37.79612 84.42,84.42v0c0,46.62388 -37.79612,84.42 -84.42,84.42z" fill="none" stroke="none" stroke-width="1" stroke-linejoin="miter"/><path d="M126,205.38c-43.84036,0 -79.38,-35.53964 -79.38,-79.38v0c0,-43.84036 35.53964,-79.38 79.38,-79.38v0c43.84036,0 79.38,35.53964 79.38,79.38v0c0,43.84036 -35.53964,79.38 -79.38,79.38z" fill="none" stroke="none" stroke-width="1" stroke-linejoin="miter"/><path d="M126,211.68c-47.31976,0 -85.68,-38.36024 -85.68,-85.68v0c0,-47.31976 38.36024,-85.68 85.68,-85.68v0c47.31976,0 85.68,38.36024 85.68,85.68v0c0,47.31976 -38.36024,85.68 -85.68,85.68z" fill="none" stroke="none" stroke-width="1" stroke-linejoin="miter"/><path d="M126,206.64c-44.53624,0 -80.64,-36.10376 -80.64,-80.64v0c0,-44.53624 36.10376,-80.64 80.64,-80.64h0c44.53624,0 80.64,36.10376 80.64,80.64v0c0,44.53624 -36.10376,80.64 -80.64,80.64z" fill="none" stroke="none" stroke-width="1" stroke-linejoin="miter"/><path d="M126,212.94c-48.01564,0 -86.94,-38.92436 -86.94,-86.94v0c0,-48.01564 38.92436,-86.94 86.94,-86.94v0c48.01564,0 86.94,38.92436 86.94,86.94v0c0,48.01564 -38.92436,86.94 -86.94,86.94z" fill="none" stroke="none" stroke-width="1" stroke-linejoin="miter"/><path d="M126,207.9c-45.23212,0 -81.9,-36.66788 -81.9,-81.9v0c0,-45.23212 36.66788,-81.9 81.9,-81.9h0c45.23212,0 81.9,36.66788 81.9,81.9v0c0,45.23212 -36.66788,81.9 -81.9,81.9z" fill="none" stroke="none" stroke-width="1" stroke-linejoin="miter"/><path d="M126,215.46c-49.40739,0 -89.46,-40.05261 -89.46,-89.46v0c0,-49.40739 40.05261,-89.46 89.46,-89.46h0c49.40739,0 89.46,40.05261 89.46,89.46v0c0,49.40739 -40.05261,89.46 -89.46,89.46z" fill="none" stroke="none" stroke-width="1" stroke-linejoin="miter"/><path d="M126,210.42c-46.62388,0 -84.42,-37.79612 -84.42,-84.42v0c0,-46.62388 37.79612,-84.42 84.42,-84.42v0c46.62388,0 84.42,37.79612 84.42,84.42v0c0,46.62388 -37.79612,84.42 -84.42,84.42z" fill="none" stroke="none" stroke-width="1" stroke-linejoin="miter"/><path d="M126,217.98c-50.79915,0 -91.98,-41.18085 -91.98,-91.98v0c0,-50.79915 41.18085,-91.98 91.98,-91.98h0c50.79915,0 91.98,41.18085 91.98,91.98v0c0,50.79915 -41.18085,91.98 -91.98,91.98z" fill="none" stroke="none" stroke-width="1" stroke-linejoin="miter"/><path d="M126,212.94c-48.01564,0 -86.94,-38.92436 -86.94,-86.94v0c0,-48.01564 38.92436,-86.94 86.94,-86.94v0c48.01564,0 86.94,38.92436 86.94,86.94v0c0,48.01564 -38.92436,86.94 -86.94,86.94z" fill="none" stroke="none" stroke-width="1" stroke-linejoin="miter"/><path d="M126,219.24c-51.49503,0 -93.24,-41.74497 -93.24,-93.24v0c0,-51.49503 41.74497,-93.24 93.24,-93.24h0c51.49503,0 93.24,41.74497 93.24,93.24v0c0,51.49503 -41.74497,93.24 -93.24,93.24z" fill="none" stroke="none" stroke-width="1" stroke-linejoin="miter"/><path d="M126,214.2c-48.71151,0 -88.2,-39.48849 -88.2,-88.2v0c0,-48.71151 39.48849,-88.2 88.2,-88.2v0c48.71151,0 88.2,39.48849 88.2,88.2v0c0,48.71151 -39.48849,88.2 -88.2,88.2z" fill="none" stroke="none" stroke-width="1" stroke-linejoin="miter"/><path d="" fill="none" stroke="none" stroke-width="1" stroke-linejoin="miter"/><path d="" fill="none" stroke="none" stroke-width="1" stroke-linejoin="miter"/></g></g></svg>
