<?xml version="1.0" ?><svg enable-background="new 0 0 52 52" id="Layer_1" version="1.1" viewBox="0 0 52 52" xml:space="preserve" xmlns="http://www.w3.org/2000/svg" xmlns:xlink="http://www.w3.org/1999/xlink"><g><g><path d="M44.5976563,19.5028076c0.9033203-1.7021484,1.3769531-3.5859375,1.3769531-5.5009766    c0-6.6171875-5.5097656-12-12.2822266-12c-4.7265625,0-8.9785156,2.6445313-11.0195313,6.7167969    c-1.3623047-1.1044922-3.0732422-1.7167969-4.8779297-1.7167969c-4.2275391,0-7.6669922,3.3642578-7.6669922,7.5    c0,0.0830078,0.0019531,0.1660156,0.0048828,0.2509766C7.0322266,16.1121826,5,19.133667,5,22.5018311    c0,3.3094482,1.9488525,6.1762695,4.7793579,7.5795288c-0.4343872-2.0839233-0.6741333-4.3045654-0.6104126-6.6566772    c0.0292969-1.3740234,0.9892578-2.5507813,2.3359375-2.8486328l0.5244141-0.1240234    c4.3525391-1.0224609,8.3212891-3.3183594,11.4785156-6.6416016l0.8251953-0.8740234    c0.6064453-0.6103516,1.3857422-0.9384766,2.1748047-0.9384766c0.8955078,0.0322266,1.6416016,0.3662109,2.1894531,0.9414063    l0.5664063,0.6181641c3.3261719,3.6035156,7.5527344,6.03125,12.2167969,7.0136719    c1.3388672,0.2675781,2.3466797,1.4697266,2.3769531,2.8554688c0.074646,2.4578247-0.1976929,4.7774048-0.6804199,6.9525146    C45.4320679,29.3390503,47,27.0990601,47,24.5018311C47,22.5360107,46.1171875,20.7283936,44.5976563,19.5028076z" fill="#F93E2B"/></g><g><path d="M41.0678711,22.5281982c-5.0799561-1.0700073-9.6699829-3.710022-13.2799683-7.6199951l-0.5400391-0.5900269    c-0.1900024-0.2000122-0.4499512-0.3099976-0.7299805-0.3200073c0,0,0,0-0.0100098,0    c-0.2699585,0-0.5299683,0.1199951-0.7199707,0.3099976l-0.8300171,0.8800049    c-3.4299927,3.6099854-7.7399902,6.1000366-12.4699707,7.210022l-0.5500488,0.1300049    c-0.4499512,0.0999756-0.7599487,0.4899902-0.7699585,0.9500122c-0.2999878,11.0599976,6.3699951,19.1799927,9.25,22.1699829    c2.0299683,2.0899658,4.789978,4.3399658,6.0899658,4.3499756h0.0300293c1.3499756-0.0299683,4.0599976-2.25,6.1400146-4.4400024    c2.8699951-3.0299683,9.5099487-11.2299805,9.1799927-22.0899658    C41.8479004,23.0081787,41.5178833,22.6181641,41.0678711,22.5281982z"/></g></g></svg>