<?xml version="1.0" encoding="UTF-8"?>
<svg xmlns="http://www.w3.org/2000/svg" xmlns:xlink="http://www.w3.org/1999/xlink" viewBox="0 0 64 64" version="1.1" width="42px" height="42px">
<g id="surface1">
<path style=" fill:#72CAAF;" d="M 48 43 C 46.542969 43 45.125 43.457031 43.941406 44.300781 L 23 32.601563 C 23 32.398438 23 32.199219 23 32 C 23 31.800781 23 31.601563 23 31.398438 L 44 19.699219 C 46.648438 21.542969 50.214844 21.339844 52.632813 19.203125 C 55.054688 17.066406 55.699219 13.550781 54.195313 10.695313 C 52.691406 7.839844 49.429688 6.382813 46.300781 7.164063 C 43.167969 7.949219 40.980469 10.773438 41 14 C 40.988281 14.238281 40.988281 14.472656 41 14.710938 L 20.148438 26.371094 C 17.257813 24.234375 13.214844 24.636719 10.800781 27.300781 C 8.386719 29.96875 8.386719 34.03125 10.800781 36.699219 C 13.214844 39.363281 17.257813 39.765625 20.148438 37.628906 L 41 49.289063 C 40.988281 49.527344 40.988281 49.761719 41 50 C 41 53.867188 44.132813 57 48 57 C 51.867188 57 55 53.867188 55 50 C 55 46.132813 51.867188 43 48 43 Z "/>
<path style=" fill:#81D6BB;" d="M 55 14 C 55 17.867188 51.867188 21 48 21 C 44.132813 21 41 17.867188 41 14 C 41 10.132813 44.132813 7 48 7 C 51.867188 7 55 10.132813 55 14 Z "/>
<path style=" fill:#81D6BB;" d="M 55 50 C 55 53.867188 51.867188 57 48 57 C 44.132813 57 41 53.867188 41 50 C 41 46.132813 44.132813 43 48 43 C 51.867188 43 55 46.132813 55 50 Z "/>
<path style=" fill:#8D6C9F;" d="M 48 42 C 46.554688 41.996094 45.136719 42.386719 43.898438 43.128906 L 24 32 L 43.898438 20.871094 L 44.078125 20.960938 L 44.640625 21.25 L 45.03125 21.421875 L 45.570313 21.609375 L 46 21.738281 C 46.199219 21.789063 46.398438 21.828125 46.601563 21.859375 L 46.988281 21.929688 C 47.324219 21.976563 47.664063 22 48 22 C 52.417969 22 56 18.417969 56 14 C 56 9.582031 52.417969 6 48 6 C 43.582031 6 40 9.582031 40 14 C 33.011719 6.070313 40 14.101563 40 14.140625 L 20.199219 25.199219 C 18.941406 24.414063 17.484375 24 16 24 C 11.582031 24 8 27.582031 8 32 C 8 36.417969 11.582031 40 16 40 C 17.484375 40 18.941406 39.585938 20.199219 38.800781 L 40 49.859375 C 40 49.859375 40 50 40 50 C 40.003906 50.335938 40.027344 50.667969 40.070313 51 C 40.070313 51.089844 40.070313 51.179688 40.070313 51.269531 C 40.109375 51.523438 40.164063 51.773438 40.230469 52.019531 C 40.230469 52.101563 40.230469 52.179688 40.289063 52.261719 C 40.378906 52.566406 40.484375 52.867188 40.609375 53.160156 L 40.71875 53.398438 C 40.820313 53.609375 40.929688 53.820313 41.050781 54.03125 C 41.171875 54.238281 41.109375 54.148438 41.140625 54.210938 L 41.199219 54.28125 C 43.253906 57.519531 47.316406 58.847656 50.886719 57.445313 C 54.457031 56.042969 56.527344 52.300781 55.824219 48.53125 C 55.117188 44.757813 51.835938 42.019531 48 42 Z M 48 56 C 45.867188 55.992188 43.898438 54.847656 42.828125 53 C 42.738281 52.847656 42.652344 52.691406 42.578125 52.53125 L 42.488281 52.351563 C 42.398438 52.132813 42.316406 51.90625 42.25 51.679688 L 42.25 51.488281 C 42.203125 51.304688 42.164063 51.117188 42.128906 50.929688 C 42.128906 50.859375 42.128906 50.789063 42.128906 50.71875 C 42.074219 50.269531 42.074219 49.8125 42.128906 49.359375 C 42.191406 48.769531 42.339844 48.1875 42.570313 47.640625 C 42.726563 47.308594 42.6875 46.917969 42.472656 46.621094 C 42.253906 46.328125 41.894531 46.175781 41.53125 46.222656 C 41.167969 46.273438 40.859375 46.515625 40.730469 46.859375 C 40.613281 47.140625 40.511719 47.429688 40.429688 47.71875 L 20.738281 36.71875 C 20.398438 36.53125 19.976563 36.558594 19.660156 36.789063 C 18.605469 37.585938 17.320313 38.011719 16 38 C 12.6875 38 10 35.3125 10 32 C 10 28.6875 12.6875 26 16 26 C 17.277344 26.003906 18.519531 26.410156 19.550781 27.171875 C 19.863281 27.402344 20.289063 27.429688 20.628906 27.238281 L 41.519531 15.578125 C 41.878906 15.382813 42.082031 14.984375 42.03125 14.578125 C 41.742188 12.003906 43.125 9.527344 45.472656 8.421875 C 47.816406 7.316406 50.609375 7.828125 52.410156 9.695313 C 54.210938 11.558594 54.628906 14.363281 53.441406 16.671875 C 52.257813 18.980469 49.734375 20.277344 47.171875 19.898438 L 46.898438 19.898438 L 46.339844 19.769531 L 46.070313 19.691406 C 45.839844 19.613281 45.617188 19.523438 45.398438 19.421875 L 45.308594 19.421875 C 45.046875 19.285156 44.792969 19.132813 44.550781 18.960938 C 44.003906 18.578125 43.523438 18.109375 43.128906 17.570313 C 42.925781 17.265625 42.574219 17.09375 42.207031 17.125 C 41.84375 17.15625 41.523438 17.386719 41.378906 17.726563 C 41.234375 18.0625 41.28125 18.453125 41.511719 18.738281 C 41.726563 19.035156 41.964844 19.316406 42.21875 19.578125 L 22.488281 30.578125 C 22.132813 30.777344 21.929688 31.171875 21.980469 31.578125 C 21.980469 31.75 21.980469 31.921875 21.980469 32.089844 C 21.980469 32.261719 21.980469 32.429688 21.980469 32.601563 C 21.929688 33.007813 22.132813 33.402344 22.488281 33.601563 L 43.488281 45.300781 C 43.828125 45.488281 44.246094 45.464844 44.558594 45.238281 C 46.660156 43.632813 49.5625 43.589844 51.710938 45.132813 C 53.855469 46.671875 54.742188 49.441406 53.886719 51.941406 C 53.03125 54.441406 50.640625 56.089844 48 56 Z "/>
<path style=" fill:#8D6C9F;" d="M 16 21 C 16.550781 21 17 20.550781 17 20 L 17 18 C 17 17.449219 16.550781 17 16 17 C 15.449219 17 15 17.449219 15 18 L 15 20 C 15 20.550781 15.449219 21 16 21 Z "/>
<path style=" fill:#8D6C9F;" d="M 9.128906 22.109375 C 9.417969 22.5625 10.011719 22.707031 10.472656 22.4375 C 10.9375 22.171875 11.109375 21.585938 10.859375 21.109375 L 9.859375 19.378906 C 9.691406 19.054688 9.355469 18.847656 8.988281 18.84375 C 8.621094 18.839844 8.28125 19.035156 8.101563 19.355469 C 7.921875 19.675781 7.933594 20.070313 8.128906 20.378906 Z "/>
<path style=" fill:#8D6C9F;" d="M 6.109375 25.128906 L 4.378906 24.128906 C 4.070313 23.933594 3.675781 23.921875 3.355469 24.101563 C 3.035156 24.28125 2.839844 24.621094 2.84375 24.988281 C 2.847656 25.355469 3.054688 25.691406 3.378906 25.859375 L 5.109375 26.859375 C 5.261719 26.945313 5.433594 26.992188 5.609375 26.988281 C 6.066406 26.992188 6.464844 26.6875 6.582031 26.25 C 6.699219 25.808594 6.507813 25.34375 6.109375 25.121094 Z "/>
<path style=" fill:#8D6C9F;" d="M 5 32 C 5 31.449219 4.550781 31 4 31 L 2 31 C 1.449219 31 1 31.449219 1 32 C 1 32.550781 1.449219 33 2 33 L 4 33 C 4.550781 33 5 32.550781 5 32 Z "/>
<path style=" fill:#8D6C9F;" d="M 16 43 C 15.449219 43 15 43.449219 15 44 L 15 46 C 15 46.550781 15.449219 47 16 47 C 16.550781 47 17 46.550781 17 46 L 17 44 C 17 43.449219 16.550781 43 16 43 Z "/>
<path style=" fill:#8D6C9F;" d="M 10.5 41.53125 C 10.269531 41.394531 9.996094 41.359375 9.738281 41.429688 C 9.480469 41.5 9.261719 41.667969 9.128906 41.898438 L 8.128906 43.628906 C 7.882813 44.105469 8.050781 44.691406 8.515625 44.960938 C 8.980469 45.226563 9.574219 45.082031 9.859375 44.628906 L 10.859375 42.898438 C 10.996094 42.671875 11.03125 42.398438 10.964844 42.140625 C 10.898438 41.882813 10.730469 41.664063 10.5 41.53125 Z "/>
<path style=" fill:#8D6C9F;" d="M 5.109375 37.128906 L 3.378906 38.128906 C 3.054688 38.300781 2.847656 38.636719 2.84375 39.003906 C 2.839844 39.371094 3.035156 39.710938 3.355469 39.890625 C 3.675781 40.066406 4.070313 40.058594 4.378906 39.859375 L 6.109375 38.859375 C 6.433594 38.691406 6.640625 38.355469 6.644531 37.988281 C 6.652344 37.621094 6.453125 37.28125 6.132813 37.101563 C 5.8125 36.921875 5.421875 36.933594 5.109375 37.128906 Z "/>
</g>
</svg>
