<?xml version="1.0" ?><!DOCTYPE svg  PUBLIC '-//W3C//DTD SVG 1.1//EN'  'http://www.w3.org/Graphics/SVG/1.1/DTD/svg11.dtd'><svg enable-background="new 0 0 128 128" id="Слой_1" version="1.1" viewBox="0 0 128 128" xml:space="preserve" xmlns="http://www.w3.org/2000/svg" xmlns:xlink="http://www.w3.org/1999/xlink"><g><g><path d="M109,34v75c0,8.3-6.7,15-15,15H34c-8.3,0-15-6.7-15-15V19c0-8.3,6.7-15,15-15h45L109,34z" fill="#F6F3E0"/></g><g><path d="M94,125.2H34c-9,0-16.2-7.3-16.2-16.2V19C17.8,10,25,2.8,34,2.8h45c0.3,0,0.6,0.1,0.9,0.4l30,30    c0.2,0.2,0.4,0.6,0.4,0.9v75C110.2,118,103,125.2,94,125.2z M34,5.2c-7.6,0-13.8,6.2-13.8,13.8v90c0,7.6,6.2,13.8,13.8,13.8h60    c7.6,0,13.8-6.2,13.8-13.8V34.5L78.5,5.2H34z" fill="#2D2E2D"/></g><g><path d="M94,110.2H34c-0.7,0-1.2-0.6-1.2-1.2s0.6-1.2,1.2-1.2h60c0.7,0,1.2,0.6,1.2,1.2S94.7,110.2,94,110.2z" fill="#2D2E2D"/></g><g><path d="M94,98.2H34c-0.7,0-1.2-0.6-1.2-1.2s0.6-1.2,1.2-1.2h60c0.7,0,1.2,0.6,1.2,1.2S94.7,98.2,94,98.2z" fill="#2D2E2D"/></g><g><path d="M94,86.2H34c-0.7,0-1.2-0.6-1.2-1.2s0.6-1.2,1.2-1.2h60c0.7,0,1.2,0.6,1.2,1.2S94.7,86.2,94,86.2z" fill="#2D2E2D"/></g><g opacity="0.1"><path d="M109,38v-4L79,4h-4v15c0,10.5,8.5,19,19,19H109z" fill="#030505"/></g><g><path d="M79,19c0,8.3,6.7,15,15,15h15L79,4V19z" fill="#F9E373"/></g><g><path d="M109,35.2H94c-9,0-16.2-7.3-16.2-16.2V4c0-0.5,0.3-1,0.8-1.2c0.5-0.2,1-0.1,1.4,0.3l30,30    c0.4,0.4,0.5,0.9,0.3,1.4C110,34.9,109.5,35.2,109,35.2z M80.2,7v12c0,7.6,6.2,13.8,13.8,13.8h12L80.2,7z" fill="#2D2E2D"/></g><g><path d="M47.1,69.6    c0,1.2-0.8,2-2,2s-1.9-0.8-1.9-2c0-1.1,0.8-1.9,1.9-1.9S47.1,68.5,47.1,69.6z" fill="#2D2E2D" stroke="#2D2E2D" stroke-linecap="round" stroke-linejoin="round" stroke-miterlimit="10"/><path d="M53.1,52.3    c0-0.7,0.5-1.1,1.3-1.1c0.7,0,1.3,0.4,1.3,1.1v3.4h3.6c0.7,0,1,0.5,1,1.1c0,0.6-0.4,1.1-1,1.1h-3.6v9.5c0,1.4,0.6,2,1.6,2    c0.7,0,1.2-0.2,1.7-0.5c0.2-0.1,0.3-0.1,0.5-0.1c0.4,0,0.8,0.3,0.9,0.7c0.1,0.2,0.1,0.4,0.1,0.6c0,0.4-0.2,0.8-0.6,1    c-0.8,0.4-1.6,0.6-2.8,0.6c-2.3,0-4-1.2-4-4.1V58h-2.2c-0.7,0-1-0.5-1-1.1s0.3-1.1,1-1.1h2.2V52.3z" fill="#2D2E2D" stroke="#2D2E2D" stroke-linecap="round" stroke-linejoin="round" stroke-miterlimit="10"/><path d="M62.2,57.5    c-0.2-0.2-0.3-0.5-0.3-0.7c0-0.4,0.2-0.8,0.6-1c0.3-0.2,0.5-0.3,0.8-0.3c0.3,0,0.7,0.1,0.9,0.5l4,5.5l3.8-5.5    c0.3-0.3,0.6-0.5,0.9-0.5c0.3,0,0.5,0.1,0.8,0.3c0.3,0.2,0.6,0.6,0.6,1c0,0.2-0.1,0.5-0.3,0.7l-4.3,5.8l4.6,6.2    c0.2,0.2,0.3,0.5,0.3,0.7c0,0.4-0.2,0.8-0.5,1c-0.3,0.2-0.5,0.3-0.8,0.3c-0.3,0-0.7-0.1-0.9-0.5l-4.2-6l-4.2,6    c-0.3,0.3-0.6,0.5-0.9,0.5c-0.3,0-0.6-0.1-0.9-0.3c-0.3-0.3-0.5-0.6-0.5-1c0-0.2,0.1-0.5,0.3-0.7l4.7-6.3L62.2,57.5z" fill="#2D2E2D" stroke="#2D2E2D" stroke-linecap="round" stroke-linejoin="round" stroke-miterlimit="10"/><path d="M79.3,52.3    c0-0.7,0.5-1.1,1.3-1.1c0.7,0,1.3,0.4,1.3,1.1v3.4h3.6c0.7,0,1,0.5,1,1.1c0,0.6-0.4,1.1-1,1.1h-3.6v9.5c0,1.4,0.6,2,1.6,2    c0.7,0,1.2-0.2,1.7-0.5c0.2-0.1,0.3-0.1,0.5-0.1c0.4,0,0.8,0.3,0.9,0.7c0.1,0.2,0.1,0.4,0.1,0.6c0,0.4-0.2,0.8-0.6,1    c-0.8,0.4-1.6,0.6-2.8,0.6c-2.3,0-4-1.2-4-4.1V58h-2.2c-0.7,0-1-0.5-1-1.1s0.3-1.1,1-1.1h2.2V52.3z" fill="#2D2E2D" stroke="#2D2E2D" stroke-linecap="round" stroke-linejoin="round" stroke-miterlimit="10"/></g></g></svg>